<?xml version="1.0" encoding="UTF-8"?>
<svg id="Compo" xmlns="http://www.w3.org/2000/svg" viewBox="0 0 1080 1080">
  <defs>
    <style>
      .cls-1 {
        fill: #0e1014;
      }
    </style>
  </defs>
  <path class="cls-1" d="M463.97,590.95l-207.63,207.63,31.67,31.67,207.14-207.18c-13.07-7.65-23.89-18.81-31.18-32.12Z"/>
  <path class="cls-1" d="M785.69,269.22l-208.04,208.04c13.35,7.25,24.46,18.07,32.16,31.18l166.44-166.48v490.52h44.77V304.51l-35.25-35.25-.08-.04Z"/>
  <path class="cls-1" d="M559.34,495.58c-5.66-2.28-11.76-3.66-18.11-4.03-1.22-.08-2.44-.12-3.66-.12-32.81,0-59.43,26.58-59.43,59.39,0,7.69,1.47,15.06,4.15,21.82,5.7,14.41,16.89,26.05,30.98,32.36,7.41,3.38,15.63,5.21,24.3,5.21h1.1c32.28-.61,58.29-26.95,58.29-59.39,0-8.67-1.87-16.93-5.21-24.34-6.31-14.08-17.99-25.24-32.4-30.89Z"/>
  <polygon class="cls-1" points="701.11 265.52 350.73 265.52 350.73 310.29 701.07 310.29 701.11 265.52"/>
</svg>