<?xml version="1.0" encoding="UTF-8" standalone="no"?>
<!-- Created with Inkscape (http://www.inkscape.org/) -->

<svg
   version="1.1"
   id="svg178"
   width="117.03933"
   height="44.825466"
   viewBox="0 0 117.03933 44.825466"
   sodipodi:docname="marca-claro.svg"
   inkscape:version="1.2.2 (1:1.2.2+202212051550+b0a8486541)"
   xmlns:inkscape="http://www.inkscape.org/namespaces/inkscape"
   xmlns:sodipodi="http://sodipodi.sourceforge.net/DTD/sodipodi-0.dtd"
   xmlns="http://www.w3.org/2000/svg"
   xmlns:svg="http://www.w3.org/2000/svg">
  <defs
     id="defs182">
    <clipPath
       clipPathUnits="userSpaceOnUse"
       id="clipPath415">
      <g
         id="g419"
         transform="translate(-33.5206,-22.0332)">
        <path
           d="M 0,33.619 H 87.779 V 0 H 0 Z"
           id="path417" />
      </g>
    </clipPath>
    <clipPath
       clipPathUnits="userSpaceOnUse"
       id="clipPath421">
      <g
         id="g425"
         transform="translate(-18.8156,-16.9463)">
        <path
           d="M 0,33.619 H 87.779 V 0 H 0 Z"
           id="path423" />
      </g>
    </clipPath>
    <clipPath
       clipPathUnits="userSpaceOnUse"
       id="clipPath427">
      <g
         id="g431"
         transform="translate(-12.2413,-16.209)">
        <path
           d="M 0,33.619 H 87.779 V 0 H 0 Z"
           id="path429" />
      </g>
    </clipPath>
    <clipPath
       clipPathUnits="userSpaceOnUse"
       id="clipPath433">
      <g
         id="g437"
         transform="translate(-9.4572,-20.1299)">
        <path
           d="M 0,33.619 H 87.779 V 0 H 0 Z"
           id="path435" />
      </g>
    </clipPath>
    <clipPath
       clipPathUnits="userSpaceOnUse"
       id="clipPath439">
      <g
         id="g443"
         transform="translate(-12.9923,-7.751)">
        <path
           d="M 0,33.619 H 87.779 V 0 H 0 Z"
           id="path441" />
      </g>
    </clipPath>
    <clipPath
       clipPathUnits="userSpaceOnUse"
       id="clipPath445">
      <g
         id="g449"
         transform="translate(-10.921,-12.8584)">
        <path
           d="M 0,33.619 H 87.779 V 0 H 0 Z"
           id="path447" />
      </g>
    </clipPath>
    <clipPath
       clipPathUnits="userSpaceOnUse"
       id="clipPath451">
      <g
         id="g455"
         transform="translate(-12.987,-26.6563)">
        <path
           d="M 0,33.619 H 87.779 V 0 H 0 Z"
           id="path453" />
      </g>
    </clipPath>
  </defs>
  <sodipodi:namedview
     id="namedview180"
     pagecolor="#505050"
     bordercolor="#2659C7"
     borderopacity="1"
     inkscape:showpageshadow="0"
     inkscape:pageopacity="0"
     inkscape:pagecheckerboard="1"
     inkscape:deskcolor="#505050"
     showgrid="false"
     inkscape:zoom="10.586185"
     inkscape:cx="58.519665"
     inkscape:cy="22.4349"
     inkscape:window-width="1848"
     inkscape:window-height="1016"
     inkscape:window-x="72"
     inkscape:window-y="27"
     inkscape:window-maximized="1"
     inkscape:current-layer="g186">
    <inkscape:page
       x="0"
       y="0"
       id="page184"
       width="117.03933"
       height="44.825466" />
  </sodipodi:namedview>
  <g
     id="g186"
     inkscape:groupmode="layer"
     inkscape:label="Page 1"
     transform="matrix(1.3333333,0,0,-1.3333333,0,44.825467)">
    <path
       id="path202"
       clip-path="none"
       style="fill:#2659C7;fill-opacity:1;fill-rule:nonzero;stroke:none"
       d="M 12.987305 26.656699 C 8.2983097 26.656699 4.4838868 22.043954 4.4838868 16.37496 C 4.4838868 10.705966 8.2983097 6.0946863 12.987305 6.0946863 C 17.6763 6.0946863 21.490723 10.705966 21.490723 16.37496 C 21.490723 22.043954 17.6763 26.656699 12.987305 26.656699 z M 12.9917 24.966269 C 16.782696 24.966269 19.867676 21.104842 19.867676 16.358847 C 19.867676 11.611851 16.782696 7.7514247 12.9917 7.7514247 C 9.2007033 7.7514247 6.1186525 11.611851 6.1186525 16.358847 C 6.1186525 21.104842 9.2007033 24.966269 12.9917 24.966269 z M 12.994629 24.138632 C 9.3256329 24.138632 7.6655275 20.129355 7.6655275 20.129355 C 7.6655275 20.129355 8.5300324 20.514354 9.4570315 20.129355 C 9.4570315 20.129355 10.123833 19.84914 10.902832 20.40914 C 11.683832 20.972139 12.021782 21.941984 12.925782 21.873984 C 13.832781 21.805984 13.636798 21.798232 14.466797 20.655234 C 15.296796 19.513235 15.570071 19.505737 15.747071 19.446737 C 15.881071 19.401737 18.218063 19.42623 18.539063 19.42623 L 18.509766 19.543417 C 18.509766 19.543417 16.850625 24.138632 12.994629 24.138632 z M 50.562013 22.228476 C 47.182016 22.228476 44.707032 19.909761 44.707032 16.424765 C 44.707032 12.824768 47.038438 10.521444 50.544435 10.521444 C 51.195434 10.521444 52.226897 10.570671 53.066896 10.928671 L 52.973146 12.500448 C 52.418146 12.159449 51.354012 11.948202 50.562013 11.948202 C 48.261015 11.948202 46.388673 13.715963 46.388673 16.37496 C 46.388673 18.920957 48.086117 20.801718 50.641115 20.801718 C 51.450114 20.801718 52.228272 20.589905 52.926271 20.168905 L 53.052247 21.742148 C 52.258248 22.098147 51.418012 22.228476 50.562013 22.228476 z M 77.437502 22.228476 C 74.074505 22.228476 72.106935 19.730957 72.106935 16.37496 C 72.106935 12.936963 74.058505 10.521444 77.437502 10.521444 C 80.817499 10.521444 82.769533 12.936963 82.769533 16.37496 C 82.769533 19.730957 80.801499 22.228476 77.437502 22.228476 z M 24.919922 22.033652 L 24.919922 15.400839 C 24.919922 12.222842 26.493171 10.521444 29.222169 10.521444 C 31.951166 10.521444 33.52002 12.222842 33.52002 15.400839 L 33.52002 22.033652 L 31.935059 22.033652 L 31.935059 15.611776 C 31.935059 13.439779 31.268167 11.948202 29.222169 11.948202 C 27.174171 11.948202 26.507813 13.439779 26.507813 15.611776 L 26.507813 22.033652 L 24.919922 22.033652 z M 34.996583 22.033652 L 34.996583 10.717733 L 36.583009 10.717733 L 36.583009 20.022421 L 36.615235 20.022421 L 41.627931 10.717733 L 43.659669 10.717733 L 43.659669 22.033652 L 42.073243 22.033652 L 42.073243 12.920858 L 42.041017 12.920858 L 37.154298 22.033652 L 34.996583 22.033652 z M 53.876954 22.033652 L 53.876954 15.400839 C 53.876954 12.222842 55.447274 10.521444 58.176271 10.521444 C 60.905268 10.521444 62.477052 12.222842 62.477052 15.400839 L 62.477052 22.033652 L 60.890627 22.033652 L 60.890627 15.611776 C 60.890627 13.439779 60.223269 11.948202 58.176271 11.948202 C 56.130273 11.948202 55.46338 13.439779 55.46338 15.611776 L 55.46338 22.033652 L 53.876954 22.033652 z M 62.96924 22.033652 L 67.299318 15.450644 L 67.299318 10.717733 L 68.887209 10.717733 L 68.887209 15.450644 L 73.202639 22.033652 L 71.345217 22.033652 L 68.124025 16.957968 L 64.825197 22.033652 L 62.96924 22.033652 z M 77.437502 20.801718 C 79.881499 20.816718 81.087893 18.676958 81.087893 16.37496 C 81.087893 14.120962 79.992499 11.948202 77.437502 11.948202 C 74.883504 11.948202 73.788576 14.120962 73.788576 16.37496 C 73.788576 18.676958 74.994504 20.816718 77.437502 20.801718 z M 7.9409182 19.364706 C 7.8739182 19.359706 7.9052308 19.311925 8.0112307 19.188925 C 8.1192306 19.064925 8.5224262 19.028159 8.711426 19.054159 C 8.9004258 19.081159 8.7509768 19.008749 8.7509768 19.008749 C 8.562977 18.930749 8.3179572 19.008749 8.2309572 19.008749 C 8.1439573 19.008749 8.2212582 18.946081 8.364258 18.849081 C 8.5072579 18.750081 8.8899927 18.756698 9.1669924 18.781698 C 9.4419921 18.807698 9.2329104 18.756796 9.2329104 18.756796 C 9.0029106 18.673796 8.763082 18.683202 8.5590822 18.698202 C 8.3550824 18.714202 8.6492621 18.492362 8.8432619 18.462362 C 9.0372617 18.431362 9.3350159 18.605648 9.4160159 18.554648 C 9.4980158 18.503648 9.2279883 18.457487 9.0629885 18.415487 C 8.8999887 18.373487 8.7933403 18.338706 9.0483401 18.239706 C 9.3033398 18.141706 9.5436176 18.291624 9.6826174 18.305624 C 9.8186173 18.321624 9.7280276 18.255819 9.7280276 18.255819 C 9.4820278 18.16882 9.5808751 18.255183 9.4218752 18.178183 C 9.2628754 18.100183 9.5954066 18.039741 9.6914065 18.050741 C 9.7904064 18.059741 10.09586 18.135421 10.13086 18.147421 C 10.16886 18.158421 10.238945 18.194405 10.168946 18.106405 C 10.095946 18.018405 9.8613284 17.981894 9.8613284 17.981894 C 9.8613284 17.981894 9.5670161 17.876972 9.7910159 17.811972 C 9.9630157 17.761972 10.100946 17.801734 10.168946 17.842734 C 10.260945 17.900733 10.505196 18.009315 10.450196 17.964316 C 10.192196 17.753316 10.280274 17.713827 10.280274 17.713827 C 10.500273 17.568827 10.739914 17.815409 10.836914 17.835409 C 10.935914 17.856409 10.669727 17.659132 10.719727 17.576132 C 10.808727 17.427132 11.25586 17.595175 11.25586 17.595175 C 11.25586 17.595175 11.049602 17.513913 11.141602 17.376913 C 11.180602 17.316913 11.372106 17.322843 11.433106 17.379843 C 11.495106 17.435843 11.469473 17.368855 11.459473 17.316855 C 11.449473 17.264855 11.426094 17.168593 11.496094 17.098593 C 11.581094 17.013593 11.607422 17.070749 11.607422 17.133749 C 11.607422 17.193749 11.695215 17.316855 11.720215 17.316855 C 11.746215 17.316855 11.699707 17.187042 11.699707 17.059042 C 11.699707 16.931042 12.276856 16.756593 12.276856 16.723593 C 12.276856 16.694593 12.204668 16.652054 12.159668 16.621054 C 12.112668 16.591054 12.058071 16.59139 11.997071 16.56539 C 11.935071 16.53939 11.81791 16.44696 11.85791 16.37496 C 11.89891 16.30196 11.919434 16.380819 11.919434 16.380819 C 11.929434 16.508819 12.430274 16.642124 12.530274 16.243124 C 12.589274 16.004124 12.33825 15.888843 12.28125 15.879843 C 12.22525 15.868843 12.19984 15.834573 12.23584 15.828573 C 12.35784 15.808573 12.379122 15.797698 12.599121 15.781698 C 12.818121 15.765698 12.824149 15.868843 12.952149 15.879843 C 13.079149 15.888843 13.047254 15.935507 13.135254 15.935507 C 13.221254 15.935507 13.187 15.869698 13.125 15.781698 C 13.064 15.694698 12.992082 15.62069 13.059082 15.57369 C 13.124082 15.527691 13.191075 15.639976 13.226075 15.665976 C 13.263075 15.691976 13.236711 15.526405 13.303711 15.481405 C 13.388711 15.425405 13.411153 15.606694 13.431153 15.677694 C 13.451153 15.750694 13.488282 15.704062 13.488282 15.704062 C 13.493282 15.471062 13.553512 15.441995 13.624512 15.435995 C 13.696512 15.430995 13.666993 15.606046 13.666993 15.663046 C 13.666993 15.719046 13.681754 15.765062 13.697754 15.704062 C 13.711754 15.642062 13.861383 15.407909 13.942383 15.397909 C 14.025383 15.386909 14.014653 15.487394 13.993653 15.544394 C 13.972653 15.600394 13.981934 15.646933 13.981934 15.646933 C 13.981934 15.646933 14.195649 15.424249 14.264649 15.446249 C 14.418649 15.498249 14.386723 15.508284 14.365723 15.632284 C 14.346723 15.756284 13.896606 16.388019 13.870606 16.435019 C 13.844606 16.482019 13.834989 16.512499 13.937989 16.477499 C 14.039989 16.441499 14.181168 16.509757 14.222168 16.591757 C 14.264168 16.674757 14.218 16.760214 14.25 16.760214 C 14.28 16.760214 14.520989 16.580386 14.687989 16.461386 C 14.856988 16.343386 14.914637 16.30048 15.077637 16.33248 C 15.240637 16.36448 15.107778 16.409148 15.071778 16.492148 C 15.035778 16.575147 15.14795 16.502401 15.14795 16.502401 C 15.14795 16.502401 15.3832 16.374128 15.4292 16.347128 C 15.4762 16.322128 15.679192 16.310652 15.596192 16.408651 C 15.515192 16.507651 15.541993 16.545546 15.541993 16.600546 C 15.541993 16.657546 15.692157 16.453284 15.785157 16.382284 C 16.093156 16.143284 16.103028 16.380819 16.103028 16.380819 C 16.429027 15.92582 16.972235 15.732964 17.115235 15.728964 C 17.257235 15.723964 17.230223 15.83873 17.178223 15.86373 C 17.128223 15.89073 16.981664 15.92003 16.930664 15.99703 C 16.878665 16.07403 16.91954 16.069046 16.977539 16.038046 C 17.032539 16.009046 17.274782 15.878448 17.425782 15.875448 C 17.579782 15.869448 17.585289 15.974413 17.446289 16.064413 C 17.33329 16.138413 17.072977 16.35337 17.000977 16.42037 C 16.929977 16.48737 17.032965 16.492245 17.063965 16.467245 C 17.094965 16.441245 17.296926 16.322444 17.523926 16.146444 C 17.780926 15.947445 18.036989 16.096515 18.062989 16.143515 C 18.100989 16.213515 17.874242 16.262003 17.698243 16.394003 C 17.503243 16.541003 17.157203 16.714089 17.033204 16.807089 C 16.911204 16.899089 17.134278 16.817343 17.134278 16.817343 C 17.548277 16.580343 18.023993 16.420722 18.166993 16.405722 C 18.309992 16.388722 18.591348 16.409023 18.631348 16.539023 C 18.672348 16.667022 18.478656 16.580562 18.222657 16.641562 C 18.031657 16.688562 17.645321 16.817234 17.528321 16.905233 C 17.410321 16.992233 17.594239 16.931601 17.594239 16.931601 C 18.340238 16.611601 18.643067 16.708944 18.643067 16.708944 C 19.046066 16.826944 18.815918 16.946249 18.815918 16.946249 C 18.815918 16.946249 18.525293 16.935757 18.300293 16.966757 C 18.075294 16.997757 15.92886 17.941612 15.75586 17.993612 C 15.58386 18.044612 15.504391 18.13253 15.275391 18.05953 C 15.045391 17.98753 13.908098 17.92037 13.850098 17.92037 C 13.795098 17.92037 13.605184 17.864433 13.513184 17.709433 C 13.392184 17.507433 12.893891 17.004265 12.837891 16.987265 C 12.781891 16.971265 12.629516 17.075171 12.603516 17.116171 C 12.578516 17.157171 12.506059 17.363066 12.435059 17.683066 C 12.363059 18.003065 12.246176 18.099675 12.180176 18.157675 C 12.112176 18.213675 11.168992 19.106687 11.041992 19.219687 C 10.912993 19.332687 10.790039 19.311972 10.790039 19.311972 L 10.132324 19.309042 L 9.5961916 19.309042 L 9.395508 19.301718 C 9.0285084 19.299718 8.3658478 19.292929 8.3188479 19.292929 C 8.2508479 19.292929 7.9409182 19.364706 7.9409182 19.364706 z M 11.598633 16.383749 C 11.532981 16.372254 11.458067 16.225335 11.424317 16.199179 C 11.383317 16.168179 11.295633 16.158128 11.223633 15.972128 C 11.152633 15.787128 11.233887 15.790487 11.233887 15.790487 C 11.192887 15.518488 11.305793 15.451995 11.362793 15.435995 C 11.419793 15.419995 11.387696 15.544394 11.387696 15.544394 C 11.424696 15.554394 11.438965 15.616171 11.438965 15.616171 C 11.555965 15.652171 11.57666 15.720175 11.57666 15.720175 C 11.57666 15.720175 11.664625 15.719472 11.765625 15.749472 C 11.868625 15.780472 11.929688 15.890097 11.929688 15.890097 C 11.929688 15.890097 11.991637 15.931128 12.077637 15.972128 C 12.165637 16.013128 12.23584 15.992636 12.23584 15.992636 C 12.23584 15.992636 12.286699 16.127433 12.2417 16.209433 C 12.1587 16.357433 12.046875 16.295858 12.046875 16.295858 C 12.051875 16.233859 11.715821 16.244589 11.715821 16.244589 C 11.715821 16.244589 11.704789 16.315495 11.633789 16.373495 C 11.622539 16.382245 11.610791 16.385878 11.598633 16.383749 z M 7.5776369 13.386679 C 8.4236361 10.988681 10.337987 8.7914638 13.083985 8.7914638 C 15.804982 8.8134637 17.724923 11.006681 18.544922 13.386679 L 7.5776369 13.386679 z M 11.299805 12.922323 C 11.339805 12.921323 11.488461 12.915069 11.522461 12.912069 C 11.685461 12.900069 11.885934 12.873643 12.106934 12.825644 C 12.543933 12.732644 12.436345 12.766874 12.902344 12.586874 L 12.902344 12.556112 L 12.908203 9.7201747 C 12.034204 10.067174 11.320398 10.163964 10.983399 10.103964 L 10.910157 12.791952 C 10.903157 12.790952 10.92041 12.835897 10.92041 12.835897 L 10.92041 12.85787 L 10.92041 12.895956 C 11.05841 12.906956 11.270805 12.922323 11.299805 12.922323 z M 14.717286 12.904745 C 14.739286 12.904745 14.906411 12.896772 15.045411 12.882772 C 15.047411 12.882772 15.047805 12.882308 15.049805 12.881308 L 15.049805 12.803671 C 15.055805 11.730672 15.061524 10.103964 15.061524 10.103964 C 14.092525 10.254964 13.202 9.7531747 13.125 9.7201747 L 13.129395 12.554647 L 13.129395 12.586874 C 13.301395 12.650874 13.548958 12.74346 13.855957 12.81246 C 14.024957 12.85146 14.208739 12.882421 14.406739 12.897421 C 14.422739 12.898421 14.629286 12.906745 14.717286 12.904745 z " />
  </g>
</svg>

