<?xml version="1.0" encoding="UTF-8"?>
<svg id="Capa_1" data-name="Capa 1" xmlns="http://www.w3.org/2000/svg" viewBox="0 0 341.52 103.06">
  <defs>
    <style>
      .cls-1 {
        fill-rule: evenodd;
      }

      .cls-1, .cls-2 {
        fill: #011c8b;
      }
    </style>
  </defs>
  <g>
    <path class="cls-1" d="M12.6,40.18c-.75,11.34,5.59,21.23,16.98,25.87,7.22,2.95,18.7,1.54,24.75-3.5,2.49-2.07,4.95-5.42,6.19-8.21.44-.99,1.17-2.29,1.76-3.88h-13.08c-5.26,0-14.2.59-15.48-7.07-1.5-9.05,9.87-12.4,15.33-4.95,1.37,1.89.73,8.54,1.3,2.62.4-4.05-1.12-8.19-6.76-10.48-1.61-.64-4.6-1.12-5.99-1.34,3.72-2.47,12.46-.07,13.19,1.34-3.13-5.86-10.99-6.91-11.65-6.87,2.86-1.1,9.16.53,11.41,1.3,3.59,1.23,6.56,3.21,9.47,6.43,1.28,1.39,2.66,3.5,3.28,4.95-.59-1.96-.99-3.52-2.6-6.1-4.05-6.45-9.67-9.62-16.89-12.02-4.49-1.5-10.81-.99-14.84.73-6.36,2.75-10.81,6.28-14.03,12.71-1.17,2.33-2.33,5.66-2.33,8.48"/>
    <path class="cls-1" d="M264.49,33.84c.35.08.76.12,1.24.12,2,0,3.11-.09,3.33-.28.09-.08.18-.34.28-.8.01-.03.03-.09.05-.17l.17-.75h.48c-.13,1.18-.23,2.04-.32,2.58-1.23.03-2.08.05-2.53.05s-1.38-.01-2.77-.04c-.31,0-.55,0-.69,0-.36,0-.86.02-1.5.05v-.35l.47-.24c.24-.13.37-.42.37-.88v-7.11c0-.68-.07-1.08-.19-1.2-.1-.08-.29-.13-.57-.15l-.72-.05v-.45c.84.03,1.57.04,2.2.04s1.36-.02,2.2-.04v.45l-.72.05c-.3.02-.5.08-.59.18-.11.12-.16.52-.17,1.17v7.82ZM253.19,30.51h3.79l-1.89-4.46-1.9,4.46ZM255.71,24.04l3.63,8.52c.27.61.46,1.01.58,1.18.15.21.31.33.5.35l.51.05v.45c-.99-.03-1.63-.05-1.9-.05s-.98.02-2.09.05v-.45l.7-.05c.41-.03.61-.13.61-.31,0-.12-.1-.43-.31-.95l-.69-1.73h-4.32l-.42,1c-.35.84-.53,1.37-.53,1.58,0,.12.05.2.14.26.11.07.3.11.58.14l.56.05v.45c-.98-.03-1.59-.05-1.82-.05s-.78.02-1.63.05v-.45l.56-.05c.34-.03.61-.27.8-.74l2.67-6.07c.57-1.29,1.02-2.37,1.38-3.24h.48ZM239.83,24.21l.81-.05,7.21,8.9v-7.05c0-.61-.05-.98-.12-1.11-.06-.13-.28-.2-.64-.23l-.66-.05v-.45c.97.03,1.55.04,1.73.04.24,0,.85-.02,1.81-.04v.45l-.66.05c-.37.03-.58.11-.64.23-.08.13-.12.5-.13,1.11v8.27c0,.07.01.2.03.38,0,.07.01.13.01.17l-1.35-.24-7.09-8.8v6.94c0,.61.05.98.13,1.11.06.12.27.21.64.24l.66.05v.45c-.95-.03-1.55-.05-1.81-.05s-.82.02-1.73.05v-.45l.66-.05c.36-.03.57-.11.63-.24.08-.13.13-.5.13-1.11v-6.73c0-.61-.05-.98-.12-1.11-.06-.13-.27-.2-.64-.23l-.66-.05v-.45c.59.02,1.19.04,1.8.05ZM231.7,24.54c-1.32,0-2.32.46-2.99,1.38-.25.34-.45.78-.58,1.29-.14.52-.2,1.07-.2,1.66,0,1.16.23,2.2.69,3.12.28.56.64,1.02,1.1,1.39.66.55,1.47.82,2.44.82s1.82-.32,2.47-.95c.4-.4.7-.92.91-1.57.21-.64.31-1.38.31-2.2,0-1.15-.2-2.12-.59-2.92-.3-.59-.71-1.07-1.25-1.42-.62-.4-1.39-.61-2.3-.61ZM232.07,23.91c1.14,0,2.16.25,3.07.76.54.3,1,.71,1.39,1.24.61.82.91,1.85.91,3.07,0,.86-.16,1.67-.49,2.42-.33.75-.8,1.41-1.41,1.96-1.09.99-2.4,1.48-3.92,1.48-1.33,0-2.47-.38-3.42-1.13-.53-.43-.95-.96-1.27-1.58-.41-.8-.61-1.7-.61-2.69,0-1.4.39-2.59,1.17-3.56,1.05-1.31,2.58-1.96,4.57-1.96ZM224.19,26.01v6.73c0,.68.07,1.08.19,1.2.09.08.28.13.57.15l.72.05v.45c-.78-.03-1.52-.05-2.2-.05s-1.42.02-2.2.05v-.45l.72-.05c.3-.02.5-.08.59-.18.11-.13.16-.52.17-1.17v-6.73c0-.68-.07-1.08-.19-1.2-.1-.08-.29-.13-.57-.15l-.72-.05v-.45c.84.03,1.58.04,2.2.04s1.36-.02,2.2-.04v.45l-.72.05c-.3.02-.5.08-.59.18-.11.12-.16.52-.17,1.17ZM220.36,33.28l-.42.75c-1.03.54-2.16.81-3.4.81-1.15,0-2.19-.24-3.13-.71-.65-.33-1.19-.76-1.63-1.3-.76-.93-1.13-2.07-1.13-3.42,0-2.05.87-3.58,2.61-4.59,1.03-.6,2.22-.9,3.55-.9,1.07,0,2.22.2,3.46.61-.18.86-.28,1.62-.29,2.28h-.46v-1.07c0-.2-.15-.4-.46-.57-.72-.41-1.56-.61-2.52-.61-1.08,0-1.99.3-2.72.89-.51.41-.89.93-1.16,1.57-.27.63-.4,1.35-.4,2.13,0,1.3.34,2.37,1.03,3.21.44.54.99.96,1.65,1.25.66.29,1.39.43,2.18.43,1.14,0,2.18-.3,3.1-.9l.14.16ZM203.38,30.51h3.79l-1.89-4.46-1.9,4.46ZM205.9,24.04l3.63,8.52c.27.61.46,1.01.58,1.18.14.21.31.33.5.35l.51.05v.45c-.99-.03-1.63-.05-1.9-.05s-.98.02-2.09.05v-.45l.7-.05c.41-.03.61-.13.61-.31,0-.12-.1-.43-.31-.95l-.69-1.73h-4.32l-.42,1c-.35.84-.53,1.37-.53,1.58,0,.12.05.2.14.26.11.07.3.11.58.14l.56.05v.45c-.98-.03-1.59-.05-1.82-.05s-.78.02-1.63.05v-.45l.56-.05c.34-.03.61-.27.8-.74l2.67-6.07c.57-1.29,1.02-2.37,1.38-3.24h.48ZM186.78,21.63l1.02-.06,9.01,11.12v-8.82c0-.76-.06-1.22-.16-1.39-.08-.16-.34-.26-.8-.29l-.83-.06v-.56c1.21.03,1.94.05,2.17.05.3,0,1.06-.02,2.26-.05v.56l-.82.06c-.46.04-.73.13-.81.29-.1.17-.15.63-.16,1.39v10.34c0,.09.01.25.04.48,0,.09.01.17.02.22l-1.68-.3-8.87-11v8.68c0,.76.06,1.23.16,1.39.08.16.34.26.8.3l.83.06v.56c-1.19-.04-1.94-.06-2.26-.06s-1.02.02-2.17.06v-.56l.83-.06c.45-.04.71-.14.79-.3.1-.16.16-.62.17-1.39v-8.41c0-.76-.06-1.22-.16-1.39-.08-.16-.34-.26-.8-.29l-.83-.06v-.56c.74.03,1.49.04,2.25.06ZM171.04,24.88v8.92c.36.08.87.12,1.54.12.96,0,1.71-.09,2.25-.28.87-.31,1.54-.83,2.01-1.57.49-.77.74-1.74.74-2.92,0-1.49-.35-2.59-1.05-3.29-.27-.27-.57-.48-.89-.62-.32-.14-.75-.25-1.29-.34-.54-.09-1.08-.13-1.63-.13-.74,0-1.29.04-1.67.11ZM168.78,34.24l.46-.24c.24-.13.37-.42.37-.88v-7.1c-.01-.68-.07-1.07-.19-1.18-.08-.08-.27-.14-.57-.16l-.6-.05v-.45c1.48.03,2.51.05,3.09.05s1.24-.01,2.04-.04c.24,0,.42,0,.55,0,1.48,0,2.7.37,3.64,1.11,1.07.84,1.6,2,1.6,3.49,0,1.11-.28,2.15-.83,3.12-1.04,1.8-2.81,2.7-5.31,2.7-.17,0-.4,0-.7-.02-.65-.02-1.15-.04-1.48-.04s-1.03.02-2.08.05v-.35ZM159.87,30.51h3.79l-1.89-4.46-1.9,4.46ZM162.38,24.04l3.63,8.52c.27.61.46,1.01.58,1.18.14.21.31.33.5.35l.51.05v.45c-.99-.03-1.63-.05-1.9-.05s-.98.02-2.09.05v-.45l.7-.05c.41-.03.61-.13.61-.31,0-.12-.11-.43-.31-.95l-.69-1.73h-4.32l-.42,1c-.35.84-.53,1.37-.53,1.58,0,.12.05.2.14.26.11.07.3.11.58.14l.56.05v.45c-.98-.03-1.59-.05-1.82-.05s-.78.02-1.63.05v-.45l.56-.05c.34-.03.61-.27.8-.74l2.67-6.07c.57-1.29,1.02-2.37,1.38-3.24h.48ZM149.03,24.88v8.92c.36.08.87.12,1.54.12.96,0,1.71-.09,2.25-.28.87-.31,1.54-.83,2.01-1.57.49-.77.74-1.74.74-2.92,0-1.49-.35-2.59-1.05-3.29-.27-.27-.57-.48-.89-.62-.32-.14-.75-.25-1.29-.34-.54-.09-1.08-.13-1.63-.13-.74,0-1.29.04-1.67.11ZM146.77,34.24l.46-.24c.24-.13.37-.42.37-.88v-7.1c-.01-.68-.07-1.07-.19-1.18-.08-.08-.27-.14-.57-.16l-.6-.05v-.45c1.48.03,2.51.05,3.09.05s1.24-.01,2.04-.04c.24,0,.42,0,.55,0,1.48,0,2.7.37,3.64,1.11,1.07.84,1.6,2,1.6,3.49,0,1.11-.28,2.15-.83,3.12-1.04,1.8-2.81,2.7-5.31,2.7-.17,0-.41,0-.7-.02-.65-.02-1.15-.04-1.48-.04s-1.03.02-2.08.05v-.35ZM144.11,26.01v6.73c0,.68.07,1.08.19,1.2.09.08.28.13.57.15l.72.05v.45c-.78-.03-1.52-.05-2.2-.05s-1.42.02-2.2.05v-.45l.72-.05c.3-.02.5-.08.59-.18.11-.13.16-.52.17-1.17v-6.73c0-.68-.07-1.08-.19-1.2-.1-.08-.29-.13-.57-.15l-.72-.05v-.45c.84.03,1.58.04,2.2.04s1.36-.02,2.2-.04v.45l-.72.05c-.3.02-.5.08-.59.18-.11.12-.16.52-.17,1.17ZM139.7,26.66h-.48l-.09-.86c-.03-.26-.1-.46-.24-.58-.47-.45-1.14-.67-2-.67-.46,0-.88.1-1.24.31-.69.4-1.03,1.02-1.03,1.85,0,.54.17.95.52,1.24.35.3,1,.51,1.95.64.99.13,1.68.28,2.06.45.45.19.79.43,1.02.73.24.33.36.77.36,1.33,0,1.05-.39,1.92-1.19,2.61-.4.35-.89.63-1.48.83-.59.2-1.2.3-1.83.3-.88,0-1.74-.19-2.6-.57.08-.56.12-1.1.12-1.64,0-.14,0-.36,0-.65h.47l.13,1c.03.25.22.48.56.7.53.33,1.15.5,1.87.5.86,0,1.56-.27,2.08-.8.41-.41.62-.92.62-1.53,0-.55-.19-.99-.56-1.32-.23-.2-.56-.36-.98-.47-.22-.06-.59-.13-1.09-.2-.92-.13-1.57-.29-1.98-.47-.41-.19-.71-.42-.92-.7-.26-.35-.39-.82-.39-1.41,0-.98.35-1.78,1.06-2.4.34-.3.76-.54,1.25-.71.49-.17,1.01-.26,1.54-.26.56,0,1.16.1,1.78.3.23.07.54.18.91.33-.14.72-.21,1.42-.21,2.12ZM126.23,24.91v7.82c0,.68.07,1.08.19,1.2.09.08.28.13.57.15l.72.05v.45c-.78-.03-1.52-.05-2.2-.05s-1.42.02-2.2.05v-.45l.72-.05c.3-.02.5-.08.59-.18.11-.13.16-.52.17-1.17v-6.73c0-.68-.06-1.07-.18-1.18-.08-.08-.27-.14-.58-.16l-.61-.05v-.45c1.36.03,2.23.04,2.59.04.5,0,1.16,0,1.98-.03.31,0,.53-.02.68-.02.75,0,1.35.11,1.81.34.76.37,1.13,1.01,1.13,1.89s-.4,1.61-1.21,2.19c-.26.19-.53.33-.8.45-.21.08-.51.17-.91.26l3.4,4.44c.17.23.48.36.91.39v.45c-.58-.03-.95-.05-1.08-.05-.15,0-.49.02-1.02.05-.16-.22-.36-.49-.61-.81l-2.76-3.7c-.1-.14-.23-.3-.4-.48-.14-.16-.26-.31-.38-.45l.09-.18c.18.01.33.02.42.02.72,0,1.3-.13,1.75-.38.73-.42,1.1-1.04,1.1-1.87,0-.68-.25-1.2-.73-1.56-.39-.29-.96-.43-1.7-.43-.48,0-.97.06-1.47.17ZM122.16,24.21c-.15.64-.23,1.4-.24,2.27h-.53v-.97c0-.2-.03-.32-.09-.37-.1-.09-.43-.17-1.01-.26-.47-.06-.93-.09-1.38-.09-.87,0-1.49.04-1.85.13v4c.5.03,1.05.04,1.64.04.88,0,1.44-.05,1.68-.16.07-.13.11-.26.12-.39l.08-.78h.44c-.03.87-.04,1.45-.04,1.74,0,.27.02.82.04,1.66h-.44l-.08-.89-.12-.37c-.23-.12-.82-.19-1.76-.19-.66,0-1.19.02-1.57.05v4.2c.35.08.83.12,1.43.12,1.64,0,2.58-.06,2.83-.19.14-.07.26-.31.37-.73.04-.13.09-.45.17-.95h.52c-.16.77-.23,1.59-.24,2.46-1.23.03-2.07.05-2.5.05-.46,0-1.26-.01-2.4-.03-.48-.01-.82-.02-1.03-.02-.4,0-1.03.02-1.88.05v-.45l.54-.05c.32-.03.52-.1.6-.19.1-.12.16-.51.16-1.16v-6.73c0-.68-.07-1.08-.19-1.2-.1-.08-.29-.13-.57-.15l-.72-.05v-.45c1.28.03,2.18.04,2.68.04.35,0,1.01,0,1.98-.03.62,0,1.11-.02,1.48-.02.63,0,1.25.02,1.86.05ZM107.11,24.62l-.84.05c-.32.02-.48.11-.48.29,0,.05.01.11.04.17l2.95,7.6,2.74-7.08c.09-.23.13-.43.13-.59,0-.23-.17-.36-.52-.38l-.78-.05v-.45l.57.02c.41.02.71.02.88.02h.16l1.62-.05v.45l-.45.05c-.11,0-.22.07-.31.17-.12.11-.29.42-.49.91l-2.61,6.31c-.4.97-.72,1.84-.96,2.62h-.75c-.2-.7-.49-1.52-.87-2.47l-2.82-6.93c-.09-.21-.18-.36-.28-.45-.1-.09-.23-.15-.38-.16l-.54-.05v-.45c1,.03,1.67.04,1.99.04s.99-.02,2-.04v.45ZM101.2,26.01v6.73c0,.68.07,1.08.19,1.2.09.08.28.13.57.15l.72.05v.45c-.78-.03-1.52-.05-2.2-.05s-1.42.02-2.2.05v-.45l.72-.05c.3-.02.5-.08.59-.18.11-.13.16-.52.17-1.17v-6.73c0-.68-.07-1.08-.19-1.2-.1-.08-.29-.13-.57-.15l-.72-.05v-.45c.84.03,1.58.04,2.2.04s1.36-.02,2.2-.04v.45l-.72.05c-.3.02-.5.08-.59.18-.11.12-.16.52-.17,1.17ZM87.56,24.21l.81-.05,7.21,8.9v-7.05c0-.61-.05-.98-.13-1.11-.06-.13-.27-.2-.64-.23l-.66-.05v-.45c.97.03,1.55.04,1.73.04.24,0,.85-.02,1.81-.04v.45l-.66.05c-.37.03-.58.11-.64.23-.08.13-.12.5-.13,1.11v8.27c0,.07.01.2.03.38,0,.07,0,.13.02.17l-1.35-.24-7.09-8.8v6.94c0,.61.05.98.13,1.11.06.12.27.21.64.24l.66.05v.45c-.95-.03-1.55-.05-1.81-.05s-.82.02-1.73.05v-.45l.66-.05c.36-.03.57-.11.63-.24.08-.13.13-.5.13-1.11v-6.73c0-.61-.05-.98-.12-1.11-.06-.13-.28-.2-.64-.23l-.66-.05v-.45c.59.02,1.19.04,1.8.05ZM83.37,23.88v5.41c0,2.05-.43,3.51-1.29,4.38-.82.83-2.17,1.24-4.05,1.24s-3.21-.39-3.96-1.16c-.7-.71-1.05-1.79-1.05-3.22v-6.65c0-.85-.08-1.35-.24-1.5-.12-.1-.36-.16-.71-.18l-.91-.06v-.56c1.06.03,1.97.05,2.74.05s1.69-.02,2.75-.05v.56l-.91.06c-.38.02-.63.1-.74.22-.13.16-.2.65-.21,1.46v6.44c0,1.05.21,1.83.64,2.36.59.71,1.62,1.07,3.09,1.07,1.26,0,2.19-.25,2.8-.76.79-.65,1.18-1.69,1.18-3.12v-5.99c0-.76-.06-1.22-.16-1.39-.08-.16-.34-.26-.8-.29l-.83-.06v-.56c1.21.03,1.94.05,2.17.05.3,0,1.06-.02,2.26-.05v.56l-.83.06c-.46.04-.72.13-.8.29-.1.17-.15.63-.16,1.39Z"/>
    <path class="cls-1" d="M210.06,50.68h3.79l-1.89-4.46-1.9,4.46ZM212.57,44.22l3.63,8.52c.27.61.46,1.01.58,1.18.14.21.31.33.5.35l.51.04v.45c-.99-.03-1.63-.05-1.9-.05s-.98.02-2.09.05v-.45l.7-.04c.41-.03.61-.13.61-.31,0-.12-.1-.43-.31-.95l-.69-1.73h-4.32l-.42,1c-.35.84-.53,1.37-.53,1.58,0,.12.05.2.14.27.11.07.3.11.58.14l.56.04v.45c-.98-.03-1.59-.05-1.82-.05s-.78.02-1.63.05v-.45l.56-.04c.34-.03.61-.28.8-.74l2.67-6.06c.57-1.29,1.02-2.37,1.38-3.24h.48ZM202.09,45.08h-2.33c-.24,0-.4.04-.47.13-.08.08-.11.2-.13.36l-.06,1.19h-.46c0-.86-.04-1.67-.11-2.42,1.64.02,2.66.04,3.05.04h2.36c2.14-.03,3.22-.04,3.24-.04-.07.75-.11,1.55-.11,2.42h-.46l-.07-1.19c0-.18-.06-.31-.14-.39-.08-.07-.24-.11-.45-.11h-2.33c-.04.38-.06.89-.06,1.5v6.34c0,.68.07,1.08.19,1.2.09.08.28.13.57.15l.72.04v.45c-.78-.03-1.52-.05-2.2-.05s-1.42.02-2.2.05v-.45l.72-.04c.3-.02.5-.09.59-.18.1-.12.16-.51.17-1.17v-6.34c0-.59-.02-1.09-.06-1.5ZM191.25,50.68h3.79l-1.89-4.46-1.9,4.46ZM193.77,44.22l3.63,8.52c.27.61.46,1.01.58,1.18.14.21.31.33.5.35l.51.04v.45c-.99-.03-1.63-.05-1.9-.05s-.98.02-2.09.05v-.45l.7-.04c.41-.03.61-.13.61-.31,0-.12-.1-.43-.31-.95l-.69-1.73h-4.32l-.42,1c-.35.84-.53,1.37-.53,1.58,0,.12.05.2.14.27.11.07.3.11.58.14l.56.04v.45c-.98-.03-1.59-.05-1.82-.05s-.78.02-1.63.05v-.45l.56-.04c.34-.03.61-.28.8-.74l2.67-6.06c.57-1.29,1.02-2.37,1.38-3.24h.48ZM181.84,54.01c.35.08.76.12,1.24.12,2,0,3.11-.09,3.33-.28.09-.08.18-.34.28-.8,0-.03.02-.08.04-.17l.18-.75h.48c-.13,1.18-.23,2.04-.31,2.58-1.23.03-2.08.05-2.53.05s-1.38-.01-2.77-.04c-.31,0-.54,0-.69,0-.36,0-.86.02-1.5.05v-.34l.47-.24c.24-.13.37-.42.37-.88v-7.11c0-.68-.07-1.08-.19-1.2-.1-.08-.29-.13-.57-.15l-.72-.05v-.45c.84.03,1.57.04,2.2.04s1.36-.02,2.2-.04v.45l-.72.05c-.3.02-.5.08-.59.18-.11.13-.16.52-.17,1.17v7.82ZM171.34,42.69v9.78c0,.85.08,1.35.24,1.5.12.1.35.16.71.19l.91.06v.56c-.98-.04-1.89-.06-2.75-.06s-1.77.02-2.74.06v-.56l.91-.06c.38-.03.63-.11.74-.23.13-.16.2-.65.21-1.46v-8.41c0-.7-.06-1.15-.17-1.33-.12-.2-.39-.32-.83-.35l-.84-.06v-.56c1.76.03,2.91.05,3.43.05.58,0,1.46-.02,2.65-.04.23,0,.4,0,.52,0,.91,0,1.68.16,2.3.47,1.02.51,1.54,1.32,1.54,2.44,0,.96-.33,1.81-1.01,2.54-.89.96-2.06,1.45-3.52,1.45-.33,0-.7-.04-1.1-.12l-.18-.67c.42.12.81.18,1.15.18.96,0,1.71-.36,2.24-1.09.35-.49.53-1.08.53-1.77,0-.97-.32-1.7-.97-2.18-.49-.36-1.2-.54-2.13-.54-.6,0-1.21.07-1.84.22ZM157.62,54.01c.35.08.76.12,1.24.12,2,0,3.11-.09,3.33-.28.09-.08.18-.34.28-.8,0-.03.02-.08.05-.17l.17-.75h.48c-.13,1.18-.23,2.04-.31,2.58-1.23.03-2.08.05-2.53.05s-1.38-.01-2.77-.04c-.31,0-.54,0-.69,0-.36,0-.86.02-1.5.05v-.34l.47-.24c.24-.13.37-.42.37-.88v-7.11c0-.68-.07-1.08-.19-1.2-.1-.08-.29-.13-.57-.15l-.72-.05v-.45c.84.03,1.57.04,2.2.04s1.36-.02,2.2-.04v.45l-.72.05c-.3.02-.5.08-.59.18-.11.13-.16.52-.17,1.17v7.82ZM153.55,44.39c-.15.64-.23,1.4-.24,2.27h-.53v-.97c0-.2-.03-.32-.09-.38-.1-.09-.43-.17-1.01-.25-.47-.06-.93-.09-1.38-.09-.87,0-1.49.04-1.85.13v4c.5.03,1.05.04,1.64.04.88,0,1.44-.05,1.68-.16.07-.13.11-.26.12-.39l.08-.78h.44c-.03.87-.04,1.45-.04,1.74,0,.27.02.82.04,1.66h-.44l-.08-.89-.12-.37c-.23-.12-.82-.18-1.76-.18-.66,0-1.19.02-1.57.04v4.2c.35.08.83.12,1.43.12,1.64,0,2.58-.06,2.83-.19.14-.07.26-.31.37-.73.03-.13.09-.45.17-.95h.52c-.16.77-.23,1.59-.24,2.46-1.23.03-2.07.05-2.5.05-.46,0-1.26-.01-2.4-.03-.48,0-.82-.02-1.03-.02-.4,0-1.03.02-1.88.05v-.45l.54-.04c.32-.03.52-.1.6-.19.1-.12.16-.51.16-1.16v-6.73c0-.68-.07-1.08-.19-1.2-.1-.08-.29-.13-.57-.15l-.72-.05v-.45c1.28.03,2.18.04,2.68.04.35,0,1.01,0,1.98-.03.62,0,1.11-.02,1.48-.02.63,0,1.25.02,1.86.04ZM136.74,45.06v8.92c.36.08.87.12,1.54.12.96,0,1.71-.09,2.25-.28.87-.31,1.54-.83,2.01-1.57.49-.77.74-1.74.74-2.92,0-1.49-.35-2.59-1.05-3.29-.27-.27-.57-.48-.89-.62-.32-.14-.75-.25-1.29-.34-.54-.09-1.08-.13-1.63-.13-.74,0-1.29.04-1.67.11ZM134.48,54.42l.46-.24c.24-.13.37-.42.37-.88v-7.1c-.01-.68-.07-1.07-.19-1.18-.08-.08-.27-.14-.57-.16l-.6-.05v-.45c1.48.03,2.51.04,3.09.04s1.24-.01,2.04-.04c.24,0,.42,0,.55,0,1.48,0,2.7.37,3.64,1.11,1.07.84,1.6,2,1.6,3.49,0,1.11-.28,2.15-.83,3.12-1.04,1.8-2.81,2.7-5.31,2.7-.17,0-.4,0-.7-.02-.65-.03-1.15-.04-1.48-.04s-1.03.02-2.08.05v-.34ZM122.17,45.09v7.82c0,.68.07,1.08.19,1.2.09.08.28.13.57.15l.72.04v.45c-.78-.03-1.52-.05-2.2-.05s-1.42.02-2.2.05v-.45l.72-.04c.3-.02.5-.09.59-.18.11-.13.16-.52.17-1.17v-6.73c0-.68-.06-1.07-.18-1.18-.08-.08-.27-.14-.58-.16l-.61-.05v-.45c1.36.03,2.23.04,2.59.04.5,0,1.16,0,1.98-.03.31,0,.53-.02.68-.02.75,0,1.35.11,1.81.34.76.37,1.13,1.01,1.13,1.89s-.4,1.61-1.21,2.19c-.26.19-.53.33-.8.45-.21.08-.51.17-.91.26l3.4,4.44c.17.23.48.36.91.39v.45c-.58-.03-.95-.05-1.08-.05-.15,0-.49.02-1.02.05-.16-.22-.36-.49-.61-.81l-2.76-3.7c-.1-.14-.23-.3-.4-.48-.14-.16-.26-.3-.38-.45l.09-.18c.18.01.33.02.42.02.72,0,1.3-.13,1.75-.38.73-.42,1.1-1.04,1.1-1.87,0-.68-.24-1.2-.73-1.56-.39-.29-.96-.43-1.7-.43-.48,0-.97.06-1.47.18ZM110.87,50.68h3.79l-1.89-4.46-1.9,4.46ZM113.39,44.22l3.63,8.52c.27.61.46,1.01.58,1.18.14.21.31.33.5.35l.51.04v.45c-.99-.03-1.63-.05-1.9-.05s-.98.02-2.09.05v-.45l.7-.04c.41-.03.61-.13.61-.31,0-.12-.11-.43-.31-.95l-.69-1.73h-4.32l-.42,1c-.35.84-.53,1.37-.53,1.58,0,.12.05.2.14.27.11.07.3.11.58.14l.56.04v.45c-.98-.03-1.59-.05-1.82-.05s-.78.02-1.63.05v-.45l.56-.04c.34-.03.61-.28.8-.74l2.67-6.06c.57-1.29,1.02-2.37,1.38-3.24h.48ZM103.26,43.89c-.31.56-.59,1.1-.82,1.61l-3.33,7.08c-.13.27-.47,1.07-1.02,2.38h-.37l-5.22-11.08v8.58c0,.76.06,1.23.16,1.39.08.16.34.26.8.3l.83.06v.56c-1.19-.04-1.94-.06-2.26-.06s-1.02.02-2.17.06v-.56l.83-.06c.45-.04.72-.14.8-.3.1-.17.15-.63.16-1.39v-8.41c0-.76-.06-1.22-.16-1.39-.08-.16-.34-.26-.8-.29l-.83-.06v-.56c.98.03,1.57.05,1.78.05s.8-.02,1.77-.05l4.95,10.41,4.91-10.41c.92.03,1.52.05,1.79.05s.86-.02,1.73-.05v.56l-.78.06c-.46.04-.73.13-.81.29-.1.16-.15.62-.16,1.39v8.41c0,.85.08,1.35.24,1.5.12.1.36.16.72.19l.9.06v.56c-.97-.04-1.91-.06-2.84-.06-.85,0-1.65.02-2.4.06v-.56l.64-.06c.4-.04.65-.12.75-.24.13-.17.19-.65.2-1.46v-8.57ZM81.53,51.16c.68-.15,1.22-.32,1.63-.52.3-.14.55-.33.77-.56.36-.38.53-.77.53-1.18,0-.25-.07-.44-.2-.58-.13-.13-.3-.2-.51-.2-.18,0-.37.04-.58.12-.21.08-.38.18-.52.3-.41.37-.74,1.06-.98,2.07l-.14.55ZM85,53.33c-.61.5-1.13.87-1.57,1.11-.54.29-1.03.44-1.49.44-.53,0-.95-.16-1.26-.46-.32-.32-.48-.78-.48-1.39,0-.7.15-1.54.46-2.52.16-.52.35-.92.56-1.21.38-.54.99-1.03,1.83-1.46.47-.24.89-.37,1.26-.37.4,0,.71.12.96.36.2.2.31.47.31.81,0,.9-.62,1.63-1.86,2.17-.41.19-.75.31-1.03.38l-1.23.3c-.08.42-.12.82-.12,1.19,0,.54.13.93.37,1.17.21.2.46.31.77.31.54,0,1.22-.29,2.05-.88l.36-.25.12.28ZM77.71,48.57c-.46-.23-.99-.34-1.59-.34-.39,0-.69.07-.88.23-.33.25-.64.81-.91,1.68-.34,1.05-.51,2.09-.51,3.12,0,.39.13.58.37.58.14,0,.35-.08.61-.24.27-.16.53-.36.8-.61.62-.58,1.13-1.32,1.52-2.2.19-.43.33-.87.42-1.32l.18-.89ZM79.71,43.89l-1.89,8.9c-.08.35-.12.59-.12.7,0,.22.07.34.21.34s.34-.09.58-.26l.67-.46.15.29-1.21.9c-.5.37-.87.56-1.12.56-.26,0-.39-.16-.39-.5,0-.38.08-.89.24-1.53l.33-1.36c-.57.86-1.03,1.49-1.38,1.87-.93,1.03-1.72,1.54-2.38,1.54-.44,0-.67-.48-.67-1.45,0-.64.07-1.28.21-1.93.14-.65.32-1.19.55-1.63.23-.44.55-.85.94-1.24.39-.38.82-.69,1.28-.93.29-.15.59-.22.91-.22.39,0,.8.07,1.23.21l.42-2.31c.02-.11.03-.23.03-.36,0-.24-.17-.36-.51-.36h-.72l.06-.31c.39-.03.8-.09,1.22-.18.38-.09.77-.24,1.18-.45l.17.16Z"/>
    <path class="cls-1" d="M74.78,62.41c0-.33-.09-.59-.28-.79-.19-.2-.43-.3-.72-.3s-.55.1-.76.29c-.21.19-.32.43-.32.71s.1.54.3.75c.2.21.44.31.73.31.28,0,.52-.1.73-.29.22-.19.32-.42.32-.69ZM82.34,62.41c0-.33-.09-.59-.28-.79-.19-.2-.43-.3-.72-.3s-.55.1-.76.29c-.22.19-.32.43-.32.71s.1.54.3.75c.2.21.44.31.74.31.27,0,.52-.1.73-.29.21-.19.32-.42.32-.69ZM89.91,62.41c0-.33-.09-.59-.28-.79-.19-.2-.43-.3-.72-.3s-.55.1-.76.29c-.22.19-.32.43-.32.71s.1.54.3.75c.2.21.44.31.74.31.27,0,.52-.1.73-.29.21-.19.32-.42.32-.69ZM97.47,62.41c0-.33-.09-.59-.28-.79-.19-.2-.43-.3-.72-.3s-.55.1-.76.29c-.22.19-.32.43-.32.71s.1.54.3.75c.2.21.44.31.73.31.28,0,.52-.1.74-.29.22-.19.32-.42.32-.69ZM105.03,62.41c0-.33-.09-.59-.28-.79-.19-.2-.43-.3-.72-.3s-.55.1-.76.29c-.21.19-.32.43-.32.71s.1.54.3.75c.2.21.44.31.73.31.27,0,.52-.1.73-.29.22-.19.32-.42.32-.69ZM112.6,62.41c0-.33-.09-.59-.28-.79-.19-.2-.43-.3-.72-.3s-.55.1-.76.29c-.22.19-.32.43-.32.71s.1.54.3.75c.2.21.44.31.74.31.27,0,.52-.1.73-.29.21-.19.32-.42.32-.69ZM120.16,62.41c0-.33-.09-.59-.28-.79-.19-.2-.43-.3-.72-.3s-.55.1-.76.29c-.22.19-.32.43-.32.71s.1.54.3.75c.2.21.44.31.73.31.28,0,.52-.1.73-.29.22-.19.32-.42.32-.69ZM127.73,62.41c0-.33-.09-.59-.28-.79-.19-.2-.43-.3-.72-.3s-.55.1-.76.29c-.22.19-.32.43-.32.71s.1.54.3.75c.2.21.44.31.73.31.27,0,.52-.1.73-.29.22-.19.32-.42.32-.69ZM135.29,62.41c0-.33-.09-.59-.28-.79-.19-.2-.43-.3-.72-.3s-.55.1-.76.29c-.21.19-.32.43-.32.71s.1.54.3.75c.2.21.44.31.74.31.27,0,.52-.1.73-.29.21-.19.32-.42.32-.69ZM142.85,62.41c0-.33-.09-.59-.28-.79-.19-.2-.43-.3-.72-.3s-.55.1-.76.29c-.22.19-.32.43-.32.71s.1.54.3.75c.2.21.44.31.73.31.27,0,.52-.1.73-.29.22-.19.32-.42.32-.69ZM150.42,62.41c0-.33-.09-.59-.28-.79-.19-.2-.43-.3-.72-.3s-.55.1-.76.29c-.22.19-.32.43-.32.71s.1.54.3.75c.2.21.44.31.73.31.28,0,.52-.1.74-.29.21-.19.32-.42.32-.69ZM157.98,62.41c0-.33-.09-.59-.28-.79-.19-.2-.43-.3-.72-.3s-.55.1-.76.29c-.21.19-.32.43-.32.71s.1.54.3.75c.2.21.44.31.73.31.27,0,.52-.1.73-.29.22-.19.32-.42.32-.69ZM165.55,62.41c0-.33-.09-.59-.28-.79-.19-.2-.43-.3-.72-.3s-.55.1-.76.29c-.22.19-.32.43-.32.71s.1.54.3.75c.2.21.44.31.73.31.28,0,.52-.1.73-.29.22-.19.32-.42.32-.69ZM173.11,62.41c0-.33-.09-.59-.28-.79-.19-.2-.43-.3-.72-.3s-.55.1-.76.29c-.22.19-.32.43-.32.71s.1.54.29.75c.2.21.44.31.74.31.28,0,.52-.1.73-.29.22-.19.32-.42.32-.69ZM180.67,62.41c0-.33-.09-.59-.28-.79-.19-.2-.43-.3-.72-.3s-.55.1-.76.29c-.22.19-.32.43-.32.71s.1.54.3.75c.2.21.44.31.73.31.27,0,.52-.1.74-.29.22-.19.32-.42.32-.69ZM188.24,62.41c0-.33-.09-.59-.28-.79-.19-.2-.43-.3-.72-.3s-.55.1-.76.29c-.22.19-.32.43-.32.71s.1.54.3.75c.2.21.44.31.73.31.27,0,.52-.1.73-.29.21-.19.32-.42.32-.69ZM195.8,62.41c0-.33-.09-.59-.28-.79-.19-.2-.43-.3-.72-.3s-.55.1-.76.29c-.21.19-.32.43-.32.71s.1.54.3.75c.2.21.44.31.74.31.28,0,.52-.1.73-.29.22-.19.32-.42.32-.69ZM203.36,62.41c0-.33-.09-.59-.28-.79-.19-.2-.43-.3-.72-.3s-.55.1-.76.29c-.22.19-.32.43-.32.71s.1.54.3.75c.2.21.44.31.73.31.27,0,.52-.1.73-.29.22-.19.32-.42.32-.69ZM210.93,62.41c0-.33-.09-.59-.28-.79-.19-.2-.43-.3-.72-.3s-.55.1-.76.29c-.21.19-.32.43-.32.71s.1.54.3.75c.2.21.44.31.73.31.27,0,.52-.1.73-.29.21-.19.32-.42.32-.69ZM218.49,62.41c0-.33-.09-.59-.28-.79-.19-.2-.43-.3-.72-.3s-.55.1-.76.29c-.22.19-.32.43-.32.71s.1.54.3.75c.2.21.44.31.74.31.28,0,.52-.1.73-.29.21-.19.32-.42.32-.69Z"/>
    <path class="cls-2" d="M74.78,62.41c0-.33-.09-.59-.28-.79-.19-.2-.43-.3-.72-.3s-.55.1-.76.29c-.21.19-.32.43-.32.71s.1.54.3.75c.2.21.44.31.73.31.28,0,.52-.1.73-.29.22-.19.32-.42.32-.69ZM82.34,62.41c0-.33-.09-.59-.28-.79-.19-.2-.43-.3-.72-.3s-.55.1-.76.29c-.22.19-.32.43-.32.71s.1.54.3.75c.2.21.44.31.74.31.27,0,.52-.1.73-.29.21-.19.32-.42.32-.69ZM89.91,62.41c0-.33-.09-.59-.28-.79-.19-.2-.43-.3-.72-.3s-.55.1-.76.29c-.22.19-.32.43-.32.71s.1.54.3.75c.2.21.44.31.74.31.27,0,.52-.1.73-.29.21-.19.32-.42.32-.69ZM97.47,62.41c0-.33-.09-.59-.28-.79-.19-.2-.43-.3-.72-.3s-.55.1-.76.29c-.22.19-.32.43-.32.71s.1.54.3.75c.2.21.44.31.73.31.28,0,.52-.1.74-.29.22-.19.32-.42.32-.69ZM105.03,62.41c0-.33-.09-.59-.28-.79-.19-.2-.43-.3-.72-.3s-.55.1-.76.29c-.21.19-.32.43-.32.71s.1.54.3.75c.2.21.44.31.73.31.27,0,.52-.1.73-.29.22-.19.32-.42.32-.69ZM112.6,62.41c0-.33-.09-.59-.28-.79-.19-.2-.43-.3-.72-.3s-.55.1-.76.29c-.22.19-.32.43-.32.71s.1.54.3.75c.2.21.44.31.74.31.27,0,.52-.1.73-.29.21-.19.32-.42.32-.69ZM120.16,62.41c0-.33-.09-.59-.28-.79-.19-.2-.43-.3-.72-.3s-.55.1-.76.29c-.22.19-.32.43-.32.71s.1.54.3.75c.2.21.44.31.73.31.28,0,.52-.1.73-.29.22-.19.32-.42.32-.69ZM127.73,62.41c0-.33-.09-.59-.28-.79-.19-.2-.43-.3-.72-.3s-.55.1-.76.29c-.22.19-.32.43-.32.71s.1.54.3.75c.2.21.44.31.73.31.27,0,.52-.1.73-.29.22-.19.32-.42.32-.69ZM135.29,62.41c0-.33-.09-.59-.28-.79-.19-.2-.43-.3-.72-.3s-.55.1-.76.29c-.21.19-.32.43-.32.71s.1.54.3.75c.2.21.44.31.74.31.27,0,.52-.1.73-.29.21-.19.32-.42.32-.69ZM142.85,62.41c0-.33-.09-.59-.28-.79-.19-.2-.43-.3-.72-.3s-.55.1-.76.29c-.22.19-.32.43-.32.71s.1.54.3.75c.2.21.44.31.73.31.27,0,.52-.1.73-.29.22-.19.32-.42.32-.69ZM150.42,62.41c0-.33-.09-.59-.28-.79-.19-.2-.43-.3-.72-.3s-.55.1-.76.29c-.22.19-.32.43-.32.71s.1.54.3.75c.2.21.44.31.73.31.28,0,.52-.1.74-.29.21-.19.32-.42.32-.69ZM157.98,62.41c0-.33-.09-.59-.28-.79-.19-.2-.43-.3-.72-.3s-.55.1-.76.29c-.21.19-.32.43-.32.71s.1.54.3.75c.2.21.44.31.73.31.27,0,.52-.1.73-.29.22-.19.32-.42.32-.69ZM165.55,62.41c0-.33-.09-.59-.28-.79-.19-.2-.43-.3-.72-.3s-.55.1-.76.29c-.22.19-.32.43-.32.71s.1.54.3.75c.2.21.44.31.73.31.28,0,.52-.1.73-.29.22-.19.32-.42.32-.69ZM173.11,62.41c0-.33-.09-.59-.28-.79-.19-.2-.43-.3-.72-.3s-.55.1-.76.29c-.22.19-.32.43-.32.71s.1.54.29.75c.2.21.44.31.74.31.28,0,.52-.1.73-.29.22-.19.32-.42.32-.69ZM180.67,62.41c0-.33-.09-.59-.28-.79-.19-.2-.43-.3-.72-.3s-.55.1-.76.29c-.22.19-.32.43-.32.71s.1.54.3.75c.2.21.44.31.73.31.27,0,.52-.1.74-.29.22-.19.32-.42.32-.69ZM188.24,62.41c0-.33-.09-.59-.28-.79-.19-.2-.43-.3-.72-.3s-.55.1-.76.29c-.22.19-.32.43-.32.71s.1.54.3.75c.2.21.44.31.73.31.27,0,.52-.1.73-.29.21-.19.32-.42.32-.69ZM195.8,62.41c0-.33-.09-.59-.28-.79-.19-.2-.43-.3-.72-.3s-.55.1-.76.29c-.21.19-.32.43-.32.71s.1.54.3.75c.2.21.44.31.74.31.28,0,.52-.1.73-.29.22-.19.32-.42.32-.69ZM203.36,62.41c0-.33-.09-.59-.28-.79-.19-.2-.43-.3-.72-.3s-.55.1-.76.29c-.22.19-.32.43-.32.71s.1.54.3.75c.2.21.44.31.73.31.27,0,.52-.1.73-.29.22-.19.32-.42.32-.69ZM210.93,62.41c0-.33-.09-.59-.28-.79-.19-.2-.43-.3-.72-.3s-.55.1-.76.29c-.21.19-.32.43-.32.71s.1.54.3.75c.2.21.44.31.73.31.27,0,.52-.1.73-.29.21-.19.32-.42.32-.69ZM218.49,62.41c0-.33-.09-.59-.28-.79-.19-.2-.43-.3-.72-.3s-.55.1-.76.29c-.22.19-.32.43-.32.71s.1.54.3.75c.2.21.44.31.74.31.28,0,.52-.1.73-.29.21-.19.32-.42.32-.69Z"/>
  </g>
  <g>
    <path class="cls-2" d="M71.24,83.85v-.59l1.34-.2h.27l1.42.2v.59h-3.02ZM72.09,83.85l3.08-8.98h.96l3.06,8.98h-1.54l-2.56-7.72h.25l-.07.19-2.53,7.53h-.67ZM73.5,81.03v-.67h3.87v.67h-3.87ZM76.17,83.85v-.58l1.65-.2h.43l1.67.2v.58h-3.75Z"/>
    <path class="cls-2" d="M86.24,84.02c-.72,0-1.3-.17-1.74-.5-.44-.33-.71-.82-.83-1.45.06-.16.16-.28.29-.37s.27-.13.44-.13c.22,0,.39.07.52.21.12.14.22.39.3.76l.23,1.03-.5-.42c.21.09.41.15.6.19.18.04.36.06.54.06.41,0,.76-.09,1.05-.26.29-.17.51-.41.66-.72.15-.3.22-.66.22-1.08s-.08-.81-.24-1.11-.39-.53-.68-.68c-.29-.15-.65-.23-1.06-.23-.2,0-.4.01-.61.03-.21.02-.42.06-.62.11l-.38-.15.28-4.08h4.5v1.22h-4.23l.4-.76-.23,3.43-.6-.24c.32-.15.63-.26.94-.32s.62-.09.96-.09c.6,0,1.12.1,1.58.31s.81.51,1.06.92c.25.41.37.9.37,1.49s-.13,1.08-.4,1.51-.64.75-1.13.98-1.05.35-1.68.35Z"/>
    <path class="cls-2" d="M93.39,84.02c-.5,0-.97-.15-1.41-.43-.44-.29-.8-.76-1.07-1.42-.27-.66-.41-1.52-.41-2.6s.14-1.97.41-2.63c.27-.66.63-1.13,1.07-1.43.44-.3.91-.45,1.41-.45s.95.15,1.39.45.79.78,1.07,1.43c.28.66.41,1.53.41,2.63s-.14,1.95-.41,2.6c-.28.66-.63,1.13-1.07,1.42-.44.29-.9.43-1.39.43ZM93.39,83.41c.19,0,.37-.06.54-.17.17-.12.33-.32.47-.6.14-.29.25-.68.33-1.17.08-.5.12-1.13.12-1.89s-.04-1.42-.12-1.92c-.08-.5-.19-.9-.33-1.18-.14-.29-.29-.49-.47-.6-.17-.12-.35-.17-.54-.17s-.38.06-.56.17c-.18.11-.34.31-.47.6-.14.29-.25.69-.32,1.18-.08.5-.11,1.14-.11,1.93s.04,1.4.11,1.9c.08.5.18.89.32,1.17.14.28.3.48.47.6.18.12.37.17.56.17Z"/>
    <path class="cls-2" d="M99.94,83.85v-.59l1.34-.2h.27l1.42.2v.59h-3.02ZM100.79,83.85l3.08-8.98h.96l3.06,8.98h-1.54l-2.56-7.72h.25l-.07.19-2.53,7.53h-.67ZM102.2,81.03v-.67h3.87v.67h-3.87ZM104.87,83.85v-.58l1.65-.2h.43l1.67.2v.58h-3.75Z"/>
    <path class="cls-2" d="M110.19,83.85c0-.21.02-.48.02-.81,0-.33,0-.68.01-1.04,0-.36,0-.68,0-.96v-.67c0-.25,0-.46,0-.64,0-.18,0-.35-.01-.5,0-.16-.01-.32-.02-.5l-.99-.12v-.48l2.05-.83.2.13.16,1.54h0v2.07c0,.28,0,.6,0,.96,0,.36,0,.71.01,1.04s.01.6.02.81h-1.46ZM109.28,83.85v-.51l1.4-.27h.48l1.31.27v.51h-3.2ZM110.74,76.01c.07-.55.22-.99.44-1.3.22-.31.51-.47.88-.47.21,0,.4.04.56.13.16.08.3.19.42.31.15.13.3.27.44.4.14.13.29.19.46.19.21,0,.37-.09.5-.27.13-.18.23-.43.31-.73l.41.13c-.08.55-.23.99-.43,1.3-.21.31-.5.47-.86.47-.21,0-.4-.04-.56-.13-.16-.08-.3-.19-.44-.3-.13-.13-.27-.27-.42-.39-.15-.13-.31-.19-.49-.19-.19,0-.35.09-.48.27-.13.18-.24.42-.33.72l-.41-.13ZM114.25,83.85c0-.21.02-.47.02-.8s0-.68.01-1.04c0-.36,0-.68,0-.97v-1.2c0-.57-.08-.97-.24-1.18s-.42-.33-.79-.33c-.2,0-.4.03-.6.1s-.41.17-.62.31c-.21.14-.43.31-.66.53l-.15-.59h.16c.23-.29.48-.53.76-.74.27-.21.56-.36.86-.48.3-.11.59-.17.88-.17.58,0,1.02.19,1.32.58.3.38.45,1,.45,1.86v1.31c0,.29,0,.61,0,.97,0,.36,0,.71.01,1.04s.01.6.02.8h-1.43ZM113.34,83.85v-.51l1.4-.27h.47l1.32.27v.51h-3.2Z"/>
    <path class="cls-2" d="M120.61,84.02c-.56,0-1.08-.13-1.56-.38-.48-.25-.86-.63-1.15-1.13s-.43-1.11-.43-1.83.15-1.35.45-1.85c.3-.5.69-.89,1.16-1.14.48-.26.99-.39,1.53-.39s1.06.13,1.53.39.87.64,1.17,1.14.46,1.12.46,1.85-.15,1.33-.44,1.83c-.29.5-.68.88-1.16,1.13-.48.25-1,.38-1.56.38ZM120.61,83.41c.36,0,.66-.1.9-.3.24-.2.43-.5.56-.9.13-.4.19-.91.19-1.51s-.06-1.13-.19-1.54c-.13-.41-.31-.72-.56-.92-.24-.21-.54-.31-.9-.31s-.66.1-.9.31c-.24.21-.42.51-.55.92-.12.41-.19.92-.19,1.54s.06,1.11.19,1.51c.12.4.31.7.55.9.24.2.54.3.9.3Z"/>
    <path class="cls-2" d="M127.01,84.02c-.39,0-.75-.04-1.08-.13-.33-.08-.66-.22-1-.39l-.03-1.51h.82l.33,1.63h-.59v-.72c.23.17.48.29.73.38.25.08.53.12.84.12.32,0,.59-.04.8-.11.21-.08.37-.19.47-.33.1-.15.15-.32.15-.52,0-.27-.1-.49-.29-.66-.19-.17-.5-.32-.93-.45l-.63-.23c-.33-.12-.62-.26-.86-.43-.25-.17-.43-.37-.56-.6-.13-.23-.19-.5-.19-.82,0-.35.09-.67.28-.97.19-.3.46-.54.82-.72.36-.18.81-.27,1.33-.27.37,0,.7.04,1.01.13.31.09.61.22.92.4l-.07,1.39h-.78l-.29-1.4h.55v.6c-.22-.16-.44-.28-.66-.36-.22-.08-.45-.12-.7-.12-.38,0-.68.08-.88.23-.21.16-.31.37-.31.64s.09.48.26.62c.17.15.49.31.94.48l.47.15c.45.15.8.33,1.07.53s.46.42.58.66c.12.24.18.51.18.8,0,.38-.1.71-.31,1.01-.21.3-.51.54-.91.71s-.9.26-1.49.26Z"/>
    <path class="cls-2" d="M133.8,75.51v-.59h1.95v.79h-.15l-1.81-.2ZM133.8,83.85v-.59l1.81-.2h.15v.79h-1.95ZM134.97,83.85c.02-.46.03-.91.03-1.37s0-.93,0-1.42v-3.37c0-.46,0-.93,0-1.39,0-.46-.02-.92-.03-1.38h1.58c0,.45-.02.9-.03,1.36,0,.46-.01.93-.01,1.39v3.36c0,.48,0,.95.01,1.42l.03,1.39h-1.58ZM135.76,83.85v-.66h1.7c.64,0,1.19-.15,1.64-.45.45-.3.8-.73,1.04-1.3.24-.57.36-1.25.36-2.05,0-1.24-.26-2.19-.78-2.84-.52-.65-1.24-.98-2.16-.98h-1.79v-.66h2.01c.87,0,1.64.17,2.3.52.66.35,1.17.85,1.54,1.52s.55,1.47.55,2.43-.2,1.76-.6,2.43c-.4.67-.95,1.17-1.65,1.51s-1.49.52-2.4.52h-1.75Z"/>
    <path class="cls-2" d="M146.48,84.02c-.63,0-1.19-.13-1.67-.39-.48-.26-.85-.63-1.12-1.12s-.39-1.08-.39-1.78.14-1.3.42-1.82c.28-.52.66-.92,1.14-1.2.48-.28,1-.42,1.57-.42.5,0,.94.11,1.33.32.39.21.69.52.92.9.22.39.33.85.33,1.4,0,.15,0,.29-.02.42-.01.12-.03.23-.06.32h-5.02v-.59h2.93c.36,0,.59-.07.7-.2.11-.13.16-.31.16-.52,0-.31-.05-.57-.15-.78s-.25-.37-.44-.48-.42-.16-.68-.16c-.28,0-.55.08-.81.25s-.48.44-.64.82c-.17.38-.25.89-.25,1.55,0,.55.09,1.02.27,1.39.18.38.43.66.76.84.33.19.71.28,1.14.28.4,0,.75-.06,1.05-.19s.58-.34.84-.64l.32.27c-.18.31-.39.58-.62.82-.24.23-.52.41-.84.53-.32.12-.71.18-1.16.18Z"/>
    <path class="cls-2" d="M150.77,83.85c0-.31.02-.62.02-.94,0-.31,0-.62.01-.94,0-.31,0-.62,0-.94v-5.81l-1.04-.13v-.51l2.26-.6.19.12-.05,1.9v5.03c0,.31,0,.62,0,.94,0,.31,0,.62.01.94,0,.31.01.62.02.94h-1.43ZM149.78,83.85v-.51l1.46-.27h.47l1.47.27v.51h-3.4Z"/>
    <path class="cls-2" d="M161.7,84.06c-.67,0-1.28-.11-1.84-.34-.56-.23-1.04-.55-1.45-.96-.41-.41-.72-.9-.93-1.47-.21-.57-.32-1.2-.32-1.89s.11-1.32.33-1.89.53-1.07.93-1.49c.4-.42.89-.75,1.46-.98.57-.23,1.2-.34,1.9-.34.35,0,.68.02.98.07.31.04.6.11.88.21.28.09.55.21.8.35l.05,1.98h-.87l-.39-2.02.87.24v.76c-.35-.33-.7-.56-1.06-.7-.36-.13-.73-.2-1.12-.2-.58,0-1.1.15-1.57.46-.47.3-.84.75-1.11,1.34-.27.59-.41,1.32-.41,2.18s.13,1.59.39,2.18.62,1.04,1.1,1.34,1.03.46,1.66.46c.37,0,.69-.04.98-.13.29-.09.61-.22.96-.4l-.72.7v-.84c0-.52,0-1.03,0-1.55,0-.52-.02-1.03-.03-1.55h1.54c0,.51-.02,1.02-.03,1.54,0,.52-.01,1.04-.01,1.57v.59c-.46.25-.93.44-1.41.58-.47.14-.99.21-1.55.21ZM161.84,80.16v-.58h3.64v.58l-1.5.16h-.43l-1.71-.16Z"/>
    <path class="cls-2" d="M169.37,84.02c-.56,0-1.08-.13-1.56-.38-.48-.25-.86-.63-1.15-1.13s-.43-1.11-.43-1.83.15-1.35.45-1.85c.3-.5.69-.89,1.16-1.14.48-.26.99-.39,1.53-.39s1.06.13,1.53.39.87.64,1.17,1.14.46,1.12.46,1.85-.15,1.33-.44,1.83c-.29.5-.68.88-1.16,1.13-.48.25-1,.38-1.56.38ZM169.37,83.41c.36,0,.66-.1.9-.3.24-.2.43-.5.56-.9.13-.4.19-.91.19-1.51s-.06-1.13-.19-1.54c-.13-.41-.31-.72-.56-.92-.24-.21-.54-.31-.9-.31s-.66.1-.9.31c-.24.21-.42.51-.55.92-.12.41-.19.92-.19,1.54s.06,1.11.19,1.51c.12.4.31.7.55.9.24.2.54.3.9.3Z"/>
    <path class="cls-2" d="M174.29,83.85c0-.31.02-.62.02-.94,0-.31,0-.62.01-.94,0-.31,0-.62,0-.94v-5.81l-1.04-.13v-.51l2.26-.6.19.12-.05,1.9v5.03c0,.31,0,.62,0,.94,0,.31,0,.62.01.94,0,.31.01.62.02.94h-1.43ZM173.3,83.85v-.51l1.46-.27h.47l1.47.27v.51h-3.4Z"/>
    <path class="cls-2" d="M178.23,87.02c0-.34.02-.67.02-.99s0-.64.01-.96c0-.32,0-.63,0-.93v-3.77c0-.25,0-.46,0-.64,0-.18,0-.35-.01-.5,0-.16-.01-.32-.02-.5l-1-.12v-.48l2.05-.83.2.12.11,1.12.05.08v4.17l-.04.09v1.24c0,.3,0,.61,0,.93,0,.32,0,.64.01.96s.01.66.02,1h-1.41ZM177.25,87.02v-.52l1.44-.27h.55l1.51.27v.52h-3.51ZM181.36,84.02c-.26,0-.51-.04-.76-.12-.25-.08-.48-.21-.7-.4-.22-.19-.44-.44-.66-.76h-.28l.12-.78c.32.42.63.73.94.92s.62.29.95.29.61-.09.86-.26c.25-.17.46-.44.62-.81s.23-.83.23-1.38c0-.85-.15-1.49-.44-1.93s-.68-.66-1.15-.66c-.19,0-.39.04-.6.13-.21.09-.43.22-.67.39s-.49.39-.77.66l-.12-.72h.32c.23-.3.47-.55.72-.74.25-.19.51-.33.77-.43.26-.09.53-.14.81-.14.48,0,.92.13,1.3.4.39.26.7.64.92,1.14.23.5.34,1.1.34,1.81s-.12,1.3-.37,1.8c-.25.5-.58.89-1,1.17s-.89.41-1.4.41Z"/>
    <path class="cls-2" d="M188.45,84.02c-.63,0-1.19-.13-1.67-.39-.48-.26-.85-.63-1.12-1.12s-.39-1.08-.39-1.78.14-1.3.42-1.82c.28-.52.66-.92,1.14-1.2.48-.28,1-.42,1.57-.42.5,0,.94.11,1.33.32.39.21.69.52.92.9.22.39.33.85.33,1.4,0,.15,0,.29-.02.42-.01.12-.03.23-.06.32h-5.02v-.59h2.93c.36,0,.59-.07.7-.2.11-.13.16-.31.16-.52,0-.31-.05-.57-.15-.78s-.25-.37-.44-.48-.42-.16-.68-.16c-.28,0-.55.08-.81.25s-.48.44-.64.82c-.17.38-.25.89-.25,1.55,0,.55.09,1.02.27,1.39.18.38.43.66.76.84.33.19.71.28,1.14.28.4,0,.75-.06,1.05-.19s.58-.34.84-.64l.32.27c-.18.31-.39.58-.62.82-.24.23-.52.41-.84.53-.32.12-.71.18-1.16.18Z"/>
    <path class="cls-2" d="M192.18,86.2l-.23-.52c.33-.15.6-.31.81-.48s.38-.35.51-.57c.13-.21.23-.47.29-.78l.2.51-.75-.44c-.22-.12-.39-.26-.49-.41-.1-.15-.15-.31-.15-.5,0-.26.08-.48.25-.67.16-.19.41-.28.73-.28.15,0,.3.03.44.08.14.05.28.15.42.29.04.16.08.32.09.47.02.16.03.32.03.49,0,.47-.1.89-.29,1.26-.2.37-.46.68-.78.94-.33.26-.68.46-1.06.59Z"/>
    <path class="cls-2" d="M198.98,75.51v-.59h1.95v.79h-.15l-1.81-.2ZM198.98,83.85v-.59l1.81-.2h.15v.79h-1.95ZM200.14,83.85c.02-.46.03-.91.03-1.37s0-.93,0-1.42v-3.37c0-.46,0-.93,0-1.39,0-.46-.02-.92-.03-1.38h1.58c0,.45-.02.9-.03,1.36,0,.46-.01.93-.01,1.39v3.36c0,.48,0,.95.01,1.42l.03,1.39h-1.58ZM200.93,83.85v-.66h1.7c.64,0,1.19-.15,1.64-.45.45-.3.8-.73,1.04-1.3.24-.57.36-1.25.36-2.05,0-1.24-.26-2.19-.78-2.84-.52-.65-1.24-.98-2.16-.98h-1.79v-.66h2.01c.87,0,1.64.17,2.3.52.66.35,1.17.85,1.54,1.52s.55,1.47.55,2.43-.2,1.76-.6,2.43c-.4.67-.95,1.17-1.65,1.51s-1.49.52-2.4.52h-1.75Z"/>
    <path class="cls-2" d="M211.65,84.02c-.63,0-1.19-.13-1.67-.39-.48-.26-.85-.63-1.12-1.12s-.39-1.08-.39-1.78.14-1.3.42-1.82c.28-.52.66-.92,1.14-1.2.48-.28,1-.42,1.57-.42.5,0,.94.11,1.33.32.39.21.69.52.92.9.22.39.33.85.33,1.4,0,.15,0,.29-.02.42-.01.12-.03.23-.06.32h-5.02v-.59h2.93c.36,0,.59-.07.7-.2.11-.13.16-.31.16-.52,0-.31-.05-.57-.15-.78s-.25-.37-.44-.48-.42-.16-.68-.16c-.28,0-.55.08-.81.25s-.48.44-.64.82c-.17.38-.25.89-.25,1.55,0,.55.09,1.02.27,1.39.18.38.43.66.76.84.33.19.71.28,1.14.28.4,0,.75-.06,1.05-.19s.58-.34.84-.64l.32.27c-.18.31-.39.58-.62.82-.24.23-.52.41-.84.53-.32.12-.71.18-1.16.18Z"/>
    <path class="cls-2" d="M216.19,83.85c0-.21.02-.48.02-.81,0-.33,0-.68.01-1.04,0-.36,0-.68,0-.96v-1.31c0-.18,0-.35,0-.5,0-.16-.02-.32-.03-.5l-.99-.12v-.48l2.05-.83.2.13.16,1.54h0v2.07c0,.28,0,.6,0,.96,0,.36,0,.71.01,1.04s.01.6.02.81h-1.46ZM215.28,83.85v-.51l1.4-.27h.48l1.31.27v.51h-3.2ZM220.2,83.85c0-.21.02-.47.02-.8,0-.33,0-.68.01-1.04s0-.68,0-.97v-1.18c0-.57-.08-.97-.23-1.2-.15-.23-.42-.34-.79-.34-.21,0-.41.04-.61.11-.2.07-.4.18-.6.31-.2.14-.41.31-.62.52l-.19-.52h.15c.22-.29.47-.55.73-.76.26-.21.54-.38.84-.5s.6-.18.92-.18c.59,0,1.03.19,1.32.58.29.38.44,1,.44,1.86v1.31c0,.29,0,.61,0,.97s0,.71.01,1.04c0,.33.01.6.02.8h-1.43ZM219.3,83.85v-.51l1.39-.27h.48l1.31.27v.51h-3.19ZM224.2,83.85c0-.21.02-.47.02-.8s0-.68.01-1.04c0-.36,0-.68,0-.97v-1.19c0-.6-.08-1-.24-1.21-.16-.21-.42-.31-.79-.31-.2,0-.39.03-.58.09s-.39.16-.6.3c-.21.14-.42.32-.66.54l-.21-.51h.12c.25-.33.51-.6.78-.82s.56-.38.86-.48c.3-.1.6-.15.9-.15.58,0,1.02.19,1.32.56.3.37.45.97.45,1.79v1.4c0,.29,0,.61,0,.97s0,.71.01,1.04.01.6.02.8h-1.43ZM223.32,83.85v-.51l1.38-.27h.48l1.31.27v.51h-3.17Z"/>
    <path class="cls-2" d="M230.54,84.02c-.56,0-1.08-.13-1.56-.38-.48-.25-.86-.63-1.15-1.13s-.43-1.11-.43-1.83.15-1.35.45-1.85c.3-.5.69-.89,1.16-1.14.48-.26.99-.39,1.53-.39s1.06.13,1.53.39.87.64,1.17,1.14.46,1.12.46,1.85-.15,1.33-.44,1.83c-.29.5-.68.88-1.16,1.13-.48.25-1,.38-1.56.38ZM230.54,83.41c.36,0,.66-.1.9-.3.24-.2.43-.5.56-.9.13-.4.19-.91.19-1.51s-.06-1.13-.19-1.54c-.13-.41-.31-.72-.56-.92-.24-.21-.54-.31-.9-.31s-.66.1-.9.31c-.24.21-.42.51-.55.92-.12.41-.19.92-.19,1.54s.06,1.11.19,1.51c.12.4.31.7.55.9.24.2.54.3.9.3Z"/>
    <path class="cls-2" d="M237.96,84.02c-.65,0-1.21-.13-1.68-.39-.47-.26-.83-.64-1.08-1.14-.25-.5-.37-1.08-.37-1.76,0-.73.15-1.35.44-1.86.29-.51.68-.9,1.17-1.17.49-.27,1.01-.41,1.57-.41.42,0,.8.08,1.16.23s.64.37.86.64c.22.27.36.57.41.91-.04.19-.12.33-.24.41-.12.09-.26.13-.44.13-.23,0-.42-.07-.55-.2s-.22-.33-.25-.58l-.28-1.12.72.52c-.22-.12-.44-.2-.66-.25-.21-.05-.42-.07-.62-.07-.34,0-.65.1-.94.29-.29.19-.52.48-.68.87-.17.39-.25.88-.25,1.46s.09,1.07.28,1.44c.19.37.44.64.76.82.32.17.67.26,1.06.26.21,0,.42-.02.63-.07.21-.04.41-.13.6-.25.2-.12.38-.29.56-.51l.33.27c-.17.33-.37.61-.61.83-.24.22-.51.4-.82.52-.31.12-.68.18-1.1.18Z"/>
    <path class="cls-2" d="M242.29,83.85c0-.21.02-.48.02-.81,0-.33,0-.68.01-1.04,0-.36,0-.68,0-.96v-.67c0-.25,0-.46,0-.64,0-.18,0-.35-.01-.5,0-.16-.01-.32-.02-.5l-.99-.12v-.48l2.05-.83.2.13.16,1.66v1.95c0,.28,0,.6,0,.96,0,.36,0,.71.01,1.04s.01.6.02.81h-1.46ZM241.41,83.85v-.51l1.4-.27h.59l1.42.27v.51h-3.41ZM243.68,80.14l-.27-.91h.2c.13-.42.31-.77.52-1.06.21-.29.45-.5.7-.66.25-.15.51-.23.76-.23.22,0,.43.05.62.15.19.1.32.25.39.45,0,.32-.07.57-.21.74s-.35.26-.62.26c-.16,0-.31-.03-.45-.1s-.27-.17-.41-.3l-.38-.36.63-.05c-.37.21-.67.48-.92.82-.25.34-.44.76-.57,1.24Z"/>
    <path class="cls-2" d="M248.84,84.02c-.5,0-.92-.14-1.26-.42-.34-.28-.52-.7-.52-1.25,0-.28.06-.53.17-.77s.34-.46.68-.68c.33-.21.82-.41,1.45-.59.23-.07.47-.14.7-.21s.47-.13.7-.2.46-.13.69-.19v.5c-.3.09-.6.18-.89.28s-.57.19-.85.28c-.37.12-.64.25-.82.4-.18.15-.31.31-.37.48s-.09.33-.09.49c0,.34.1.58.29.74.2.15.44.23.72.23.14,0,.28-.02.42-.07.14-.05.31-.14.51-.27s.47-.32.8-.57l.17.68h-.44c-.25.26-.48.47-.68.64s-.41.3-.63.38c-.21.08-.46.13-.75.13ZM252.06,84c-.39,0-.7-.12-.94-.36-.23-.24-.35-.57-.36-.98v-3.14c0-.43-.04-.76-.12-.98-.08-.23-.21-.39-.39-.48-.18-.09-.42-.13-.7-.13-.16,0-.34.02-.53.05-.19.03-.42.09-.69.18l.64-.46-.28,1.1c-.05.26-.15.45-.27.58-.13.13-.29.19-.49.19s-.35-.05-.48-.15c-.12-.1-.19-.24-.22-.42.11-.52.4-.93.88-1.24.48-.31,1.09-.46,1.83-.46.5,0,.91.08,1.22.23.32.16.55.41.7.76.15.35.23.81.23,1.38v2.88c0,.25.04.43.12.54.08.11.19.17.32.17.11,0,.2-.03.27-.08.08-.05.15-.12.22-.21l.28.28c-.16.28-.34.47-.55.59s-.44.17-.71.17Z"/>
    <path class="cls-2" d="M257.05,84.02c-.65,0-1.21-.13-1.68-.39-.47-.26-.83-.64-1.08-1.14-.25-.5-.37-1.08-.37-1.76,0-.73.15-1.35.44-1.86.29-.51.68-.9,1.17-1.17.49-.27,1.01-.41,1.57-.41.42,0,.8.08,1.16.23s.64.37.86.64c.22.27.36.57.41.91-.04.19-.12.33-.24.41-.12.09-.26.13-.44.13-.23,0-.42-.07-.55-.2s-.22-.33-.25-.58l-.28-1.12.72.52c-.22-.12-.44-.2-.66-.25-.21-.05-.42-.07-.62-.07-.34,0-.65.1-.94.29-.29.19-.52.48-.68.87-.17.39-.25.88-.25,1.46s.09,1.07.28,1.44c.19.37.44.64.76.82.32.17.67.26,1.06.26.21,0,.42-.02.63-.07.21-.04.41-.13.6-.25.2-.12.38-.29.56-.51l.33.27c-.17.33-.37.61-.61.83-.24.22-.51.4-.82.52-.31.12-.68.18-1.1.18Z"/>
    <path class="cls-2" d="M261.35,83.85c0-.21.02-.48.02-.81s0-.68.01-1.04c0-.36,0-.68,0-.96v-.63c0-.37,0-.67,0-.92,0-.25-.02-.5-.03-.77l-1-.12v-.48l2.25-.83.2.13-.04,1.85v1.77c0,.28,0,.6,0,.96,0,.36,0,.71.01,1.04,0,.33.01.6.02.81h-1.45ZM260.44,83.85v-.51l1.4-.27h.47l1.34.27v.51h-3.21ZM262,76.02c-.27,0-.49-.08-.68-.25-.18-.17-.27-.38-.27-.64s.09-.49.27-.66c.18-.17.41-.25.68-.25s.49.08.68.25c.18.17.27.38.27.64s-.09.49-.27.66c-.18.17-.41.25-.68.25Z"/>
    <path class="cls-2" d="M266.36,84.02c-.5,0-.92-.14-1.26-.42-.34-.28-.52-.7-.52-1.25,0-.28.06-.53.17-.77s.34-.46.68-.68c.33-.21.82-.41,1.45-.59.23-.07.47-.14.7-.21s.47-.13.7-.2.46-.13.69-.19v.5c-.3.09-.6.18-.89.28s-.57.19-.85.28c-.37.12-.64.25-.82.4-.18.15-.31.31-.37.48s-.09.33-.09.49c0,.34.1.58.29.74.2.15.44.23.72.23.14,0,.28-.02.42-.07.14-.05.31-.14.51-.27s.47-.32.8-.57l.17.68h-.44c-.25.26-.48.47-.68.64s-.41.3-.63.38c-.21.08-.46.13-.75.13ZM269.59,84c-.39,0-.7-.12-.94-.36-.23-.24-.35-.57-.36-.98v-3.14c0-.43-.04-.76-.12-.98-.08-.23-.21-.39-.39-.48-.18-.09-.42-.13-.7-.13-.16,0-.34.02-.53.05-.19.03-.42.09-.69.18l.64-.46-.28,1.1c-.05.26-.15.45-.27.58-.13.13-.29.19-.49.19s-.35-.05-.48-.15c-.12-.1-.19-.24-.22-.42.11-.52.4-.93.88-1.24.48-.31,1.09-.46,1.83-.46.5,0,.91.08,1.22.23.32.16.55.41.7.76.15.35.23.81.23,1.38v2.88c0,.25.04.43.12.54.08.11.19.17.32.17.11,0,.2-.03.27-.08.08-.05.15-.12.22-.21l.28.28c-.16.28-.34.47-.55.59s-.44.17-.71.17Z"/>
    <path class="cls-2" d="M277.16,84.06c-.5,0-.99-.07-1.47-.2-.48-.13-.88-.3-1.2-.51l.08-1.9h.92l.35,2.09-.92-.36v-.64c.28.18.53.33.75.46.22.12.45.22.68.28s.49.09.78.09c.4,0,.75-.06,1.04-.19s.51-.3.67-.54.23-.5.23-.82c0-.28-.05-.51-.16-.7s-.27-.35-.5-.5c-.23-.15-.52-.29-.88-.42l-.54-.23c-.46-.2-.87-.42-1.22-.67-.35-.25-.63-.55-.82-.89s-.29-.75-.29-1.21c0-.53.13-.97.4-1.34s.63-.66,1.1-.86.99-.3,1.59-.3c.46,0,.87.06,1.26.19.38.12.72.29,1.02.51l-.09,1.78h-.91l-.36-2.02.91.43v.67c-.33-.3-.64-.52-.92-.66-.29-.13-.6-.2-.95-.2-.32,0-.61.06-.87.17s-.46.27-.62.49c-.15.21-.23.48-.23.79,0,.27.06.5.17.7.12.2.28.38.5.54.21.16.47.29.78.41l.56.23c.58.23,1.05.48,1.41.74.36.26.62.56.78.88s.24.7.24,1.13c0,.53-.13.98-.4,1.37-.27.39-.64.69-1.13.9-.49.21-1.05.31-1.71.31Z"/>
    <path class="cls-2" d="M282.27,83.85c0-.21.02-.48.02-.81s0-.68.01-1.04c0-.36,0-.68,0-.96v-.63c0-.37,0-.67,0-.92,0-.25-.02-.5-.03-.77l-1-.12v-.48l2.25-.83.2.13-.04,1.85v1.77c0,.28,0,.6,0,.96,0,.36,0,.71.01,1.04,0,.33.01.6.02.81h-1.45ZM281.36,83.85v-.51l1.4-.27h.47l1.34.27v.51h-3.21ZM282.93,76.02c-.27,0-.49-.08-.68-.25-.18-.17-.27-.38-.27-.64s.09-.49.27-.66c.18-.17.41-.25.68-.25s.49.08.68.25c.18.17.27.38.27.64s-.09.49-.27.66c-.18.17-.41.25-.68.25Z"/>
    <path class="cls-2" d="M288.68,84.02c-.63,0-1.19-.13-1.67-.39-.48-.26-.85-.63-1.12-1.12s-.39-1.08-.39-1.78.14-1.3.42-1.82c.28-.52.66-.92,1.14-1.2.48-.28,1-.42,1.57-.42.5,0,.94.11,1.33.32.39.21.69.52.92.9.22.39.33.85.33,1.4,0,.15,0,.29-.02.42-.01.12-.03.23-.06.32h-5.02v-.59h2.93c.36,0,.59-.07.7-.2.11-.13.16-.31.16-.52,0-.31-.05-.57-.15-.78s-.25-.37-.44-.48-.42-.16-.68-.16c-.28,0-.55.08-.81.25s-.48.44-.64.82c-.17.38-.25.89-.25,1.55,0,.55.09,1.02.27,1.39.18.38.43.66.76.84.33.19.71.28,1.14.28.4,0,.75-.06,1.05-.19s.58-.34.84-.64l.32.27c-.18.31-.39.58-.62.82-.24.23-.52.41-.84.53-.32.12-.71.18-1.16.18Z"/>
    <path class="cls-2" d="M293.22,83.85c0-.21.02-.48.02-.81,0-.33,0-.68.01-1.04,0-.36,0-.68,0-.96v-1.31c0-.18,0-.35,0-.5,0-.16-.02-.32-.03-.5l-.99-.12v-.48l2.05-.83.2.13.16,1.54h0v2.07c0,.28,0,.6,0,.96,0,.36,0,.71.01,1.04s.01.6.02.81h-1.46ZM292.31,83.85v-.51l1.4-.27h.48l1.31.27v.51h-3.2ZM297.23,83.85c0-.21.02-.47.02-.8,0-.33,0-.68.01-1.04s0-.68,0-.97v-1.18c0-.57-.08-.97-.23-1.2-.15-.23-.42-.34-.79-.34-.21,0-.41.04-.61.11-.2.07-.4.18-.6.31-.2.14-.41.31-.62.52l-.19-.52h.15c.22-.29.47-.55.73-.76.26-.21.54-.38.84-.5s.6-.18.92-.18c.59,0,1.03.19,1.32.58.29.38.44,1,.44,1.86v1.31c0,.29,0,.61,0,.97s0,.71.01,1.04c0,.33.01.6.02.8h-1.43ZM296.34,83.85v-.51l1.39-.27h.48l1.31.27v.51h-3.19ZM301.23,83.85c0-.21.02-.47.02-.8s0-.68.01-1.04c0-.36,0-.68,0-.97v-1.19c0-.6-.08-1-.24-1.21-.16-.21-.42-.31-.79-.31-.2,0-.39.03-.58.09s-.39.16-.6.3c-.21.14-.42.32-.66.54l-.21-.51h.12c.25-.33.51-.6.78-.82s.56-.38.86-.48c.3-.1.6-.15.9-.15.58,0,1.02.19,1.32.56.3.37.45.97.45,1.79v1.4c0,.29,0,.61,0,.97s0,.71.01,1.04.01.6.02.8h-1.43ZM300.35,83.85v-.51l1.38-.27h.48l1.31.27v.51h-3.17Z"/>
    <path class="cls-2" d="M305.11,87.02c0-.34.02-.67.02-.99s0-.64.01-.96c0-.32,0-.63,0-.93v-3.77c0-.25,0-.46,0-.64,0-.18,0-.35-.01-.5,0-.16-.01-.32-.02-.5l-1-.12v-.48l2.05-.83.2.12.11,1.12.05.08v4.17l-.04.09v1.24c0,.3,0,.61,0,.93,0,.32,0,.64.01.96s.01.66.02,1h-1.41ZM304.14,87.02v-.52l1.44-.27h.55l1.51.27v.52h-3.51ZM308.25,84.02c-.26,0-.51-.04-.76-.12-.25-.08-.48-.21-.7-.4-.22-.19-.44-.44-.66-.76h-.28l.12-.78c.32.42.63.73.94.92s.62.29.95.29.61-.09.86-.26c.25-.17.46-.44.62-.81s.23-.83.23-1.38c0-.85-.15-1.49-.44-1.93s-.68-.66-1.15-.66c-.19,0-.39.04-.6.13-.21.09-.43.22-.67.39s-.49.39-.77.66l-.12-.72h.32c.23-.3.47-.55.72-.74.25-.19.51-.33.77-.43.26-.09.53-.14.81-.14.48,0,.92.13,1.3.4.39.26.7.64.92,1.14.23.5.34,1.1.34,1.81s-.12,1.3-.37,1.8c-.25.5-.58.89-1,1.17s-.89.41-1.4.41Z"/>
    <path class="cls-2" d="M312.98,83.85c0-.21.02-.48.02-.81,0-.33,0-.68.01-1.04,0-.36,0-.68,0-.96v-.67c0-.25,0-.46,0-.64,0-.18,0-.35-.01-.5,0-.16-.01-.32-.02-.5l-.99-.12v-.48l2.05-.83.2.13.16,1.66v1.95c0,.28,0,.6,0,.96,0,.36,0,.71.01,1.04s.01.6.02.81h-1.46ZM312.1,83.85v-.51l1.4-.27h.59l1.42.27v.51h-3.41ZM314.37,80.14l-.27-.91h.2c.13-.42.31-.77.52-1.06.21-.29.45-.5.7-.66.25-.15.51-.23.76-.23.22,0,.43.05.62.15.19.1.32.25.39.45,0,.32-.07.57-.21.74s-.35.26-.62.26c-.16,0-.31-.03-.45-.1s-.27-.17-.41-.3l-.38-.36.63-.05c-.37.21-.67.48-.92.82-.25.34-.44.76-.57,1.24Z"/>
    <path class="cls-2" d="M320.94,84.02c-.63,0-1.19-.13-1.67-.39-.48-.26-.85-.63-1.12-1.12s-.39-1.08-.39-1.78.14-1.3.42-1.82c.28-.52.66-.92,1.14-1.2.48-.28,1-.42,1.57-.42.5,0,.94.11,1.33.32.39.21.69.52.92.9.22.39.33.85.33,1.4,0,.15,0,.29-.02.42-.01.12-.03.23-.06.32h-5.02v-.59h2.93c.36,0,.59-.07.7-.2.11-.13.16-.31.16-.52,0-.31-.05-.57-.15-.78s-.25-.37-.44-.48-.42-.16-.68-.16c-.28,0-.55.08-.81.25s-.48.44-.64.82c-.17.38-.25.89-.25,1.55,0,.55.09,1.02.27,1.39.18.38.43.66.76.84.33.19.71.28,1.14.28.4,0,.75-.06,1.05-.19s.58-.34.84-.64l.32.27c-.18.31-.39.58-.62.82-.24.23-.52.41-.84.53-.32.12-.71.18-1.16.18Z"/>
  </g>
</svg>